<svg version="1.1" id="Layer_1" xmlns="http://www.w3.org/2000/svg" xmlns:xlink="http://www.w3.org/1999/xlink" x="0px" y="0px"
	 width="100%" viewBox="0 0 576 256" enable-background="new 0 0 576 256" xml:space="preserve">
<path fill="#F9F9F9" opacity="1.000000" stroke="none" 
	d="
M392.000000,257.000000 
	C261.333344,257.000000 131.166702,257.000000 1.000035,257.000000 
	C1.000023,171.666687 1.000023,86.333382 1.000012,1.000058 
	C192.999954,1.000039 384.999908,1.000039 576.999878,1.000019 
	C576.999939,86.333275 576.999939,171.666550 577.000000,256.999908 
	C515.500000,257.000000 454.000000,257.000000 392.000000,257.000000 
M218.951111,159.948486 
	C218.951111,159.948486 218.939331,159.866150 219.573517,159.641052 
	C222.420212,157.534302 222.518631,156.423264 219.231644,154.514282 
	C208.491898,154.653351 197.752151,154.792404 186.564468,154.654053 
	C185.025513,157.906601 183.450714,161.143524 182.011887,164.439804 
	C181.889664,164.719803 182.674850,165.395889 183.832443,166.156448 
	C185.189041,165.992737 186.545624,165.829010 188.532593,165.614288 
	C189.295074,164.380142 190.057556,163.145996 191.769150,161.752808 
	C200.186554,161.464905 208.603958,161.177017 217.263916,161.221085 
	C217.799881,160.788513 218.335846,160.355957 218.951111,159.948486 
M53.229568,158.129974 
	C53.794014,157.689575 54.358463,157.249191 55.853573,156.610672 
	C65.190338,156.533417 74.527100,156.456161 83.863869,156.378891 
	C83.846130,155.770248 83.828400,155.161591 83.810661,154.552948 
	C74.158997,154.552948 64.507332,154.552948 54.146435,154.449554 
	C52.172821,155.311035 49.865463,155.781433 48.298103,157.118973 
	C45.421329,159.573944 46.811539,160.840515 50.760208,161.283768 
	C57.843536,161.206985 64.926865,161.130188 72.683243,161.252090 
	C73.661545,161.647659 74.639847,162.043228 75.618149,162.438797 
	C75.588104,162.995605 75.558060,163.552414 75.528015,164.109222 
	C65.019241,164.109222 54.510464,164.109222 44.001690,164.109222 
	C44.021652,164.697723 44.041611,165.286209 44.061569,165.874710 
	C55.243225,165.874710 66.428978,166.007950 77.600037,165.663879 
	C78.689789,165.630325 79.688904,162.654068 80.489082,160.630585 
	C79.959114,160.237579 79.429146,159.844574 78.072395,159.190170 
	C76.061279,159.184113 74.050163,159.178040 71.246620,158.969681 
	C65.221497,158.887878 59.196369,158.806091 53.229568,158.129974 
M226.923996,166.121246 
	C235.617783,166.083130 244.311554,166.045013 253.644135,166.169357 
	C254.213821,165.737457 254.783508,165.305557 255.353195,164.873672 
	C255.275192,164.527939 255.197189,164.182220 255.119171,163.836487 
	C248.312912,163.836487 241.506638,163.836487 233.667908,163.836487 
	C234.604126,160.976105 235.163025,159.032349 235.876160,157.146912 
	C236.868256,154.523834 236.917709,154.542542 232.501541,154.430344 
	C231.150482,155.228668 229.799423,156.027008 227.773605,156.898911 
	C226.326324,159.532349 224.879044,162.165802 223.431763,164.799225 
	C224.282852,165.233490 225.133926,165.667740 226.923996,166.121246 
M143.554382,154.660202 
	C141.890961,158.141907 140.219376,161.619904 138.627914,165.134186 
	C138.598724,165.198639 139.524139,165.695374 140.783081,166.190186 
	C141.842285,166.093353 142.901474,165.996506 144.628387,165.962708 
	C145.770279,164.653671 146.912155,163.344650 148.880264,162.043747 
	C150.252533,161.981659 151.624817,161.919586 153.920883,162.021484 
	C157.850311,162.028076 161.811691,162.346436 165.699570,161.947800 
	C169.136734,161.595383 172.491989,160.444214 176.493362,159.685471 
	C176.666367,158.114563 176.839355,156.543655 176.216675,154.623611 
	C167.479355,154.627762 158.742035,154.631912 149.298462,154.341675 
	C147.534210,154.548431 145.769943,154.755188 143.554382,154.660202 
M527.543884,160.300903 
	C526.767151,162.805435 525.291138,163.812180 522.465332,163.717621 
	C515.205200,163.474640 507.930389,163.561295 500.664185,163.681946 
	C498.799316,163.712906 496.944672,164.358063 495.085297,164.721069 
	C495.175934,165.166824 495.266571,165.612579 495.357208,166.058334 
	C496.238586,166.058334 497.119934,166.058334 498.934875,166.147186 
	C508.099274,166.126343 517.266052,166.209854 526.426208,166.002655 
	C528.421570,165.957535 530.552124,165.140732 532.286560,164.114838 
	C532.863037,163.773895 532.394714,161.666565 532.404053,160.366776 
	C531.091248,160.475464 529.778503,160.584152 527.543884,160.300903 
M275.782715,158.096588 
	C278.707245,157.574173 281.617157,156.734344 284.559540,156.598663 
	C289.874451,156.353607 295.208740,156.529327 300.534912,156.529327 
	C300.520966,155.862793 300.507019,155.196274 300.493073,154.529739 
	C292.259949,154.529739 284.026855,154.529739 275.030518,154.413330 
	C273.750824,154.473969 272.471100,154.534607 270.563934,154.350204 
	C269.436432,155.929901 268.308899,157.509598 266.891174,159.850052 
	C266.444611,161.832458 265.998077,163.814865 265.515472,165.957336 
	C274.861298,165.957336 284.421448,165.957336 294.599243,166.086014 
	C294.891937,165.627090 295.184631,165.168167 295.477356,164.709259 
	C294.943237,164.592819 294.409149,164.476364 292.968506,164.192902 
	C286.961578,164.233978 280.954651,164.275055 274.327911,163.664459 
	C275.498230,162.881805 276.632690,161.495667 277.845306,161.423553 
	C282.487457,161.147522 287.157410,161.381699 291.811188,161.237366 
	C293.567535,161.182922 295.308044,160.617661 297.055756,160.285263 
	C297.004181,159.947647 296.952576,159.610031 296.901001,159.272430 
	C295.933990,159.192017 294.966980,159.111603 293.501892,158.895676 
	C293.334747,158.936615 293.167633,158.977539 292.070862,158.913132 
	C286.750885,158.926132 281.430939,158.939133 275.782715,158.096588 
M507.886841,156.690872 
	C517.324097,156.690872 526.761414,156.690872 536.198669,156.690872 
	C536.196228,155.973862 536.193848,155.256836 536.191406,154.539825 
	C526.745483,154.539825 517.299500,154.539825 507.099518,154.407303 
	C506.283936,154.459091 505.238617,154.207275 504.695160,154.618607 
	C502.946747,155.941772 501.383575,157.509689 499.748962,158.983200 
	C501.458832,159.928101 503.168701,160.873001 504.439209,161.575104 
	C505.626038,159.303925 506.286011,158.041000 507.886841,156.690872 
M374.346161,158.191284 
	C376.250366,157.634949 378.141235,156.659927 380.061188,156.598907 
	C386.438782,156.396271 392.826843,156.522308 399.210876,156.522308 
	C399.206085,155.858032 399.201263,155.193771 399.196472,154.529495 
	C390.399597,154.529495 381.602753,154.529495 372.073914,154.417496 
	C370.221893,154.994324 367.171570,152.888260 366.366516,157.210526 
	C365.949829,158.468094 365.533112,159.725662 364.940948,161.455719 
	C364.951294,161.623413 364.961609,161.791107 364.646698,162.493118 
	C363.932709,163.440674 363.218689,164.388245 362.504669,165.335800 
	C363.308228,165.362625 364.111755,165.389435 365.648376,166.064651 
	C374.089600,166.021942 382.530823,165.979233 391.606293,166.129242 
	C392.417542,165.851593 393.228760,165.573944 394.040009,165.296295 
	C393.994171,164.967529 393.948334,164.638748 393.902496,164.309982 
	C392.896912,164.309982 391.891327,164.309982 389.972107,164.185745 
	C384.298737,164.218597 378.625336,164.251434 372.422577,163.327194 
	C373.638519,162.647003 374.829163,161.439835 376.074890,161.379974 
	C380.869232,161.149673 385.682800,161.355240 390.485840,161.247910 
	C392.078461,161.212311 393.660980,160.724167 395.248108,160.442947 
	C395.184296,159.958847 395.120453,159.474762 395.056641,158.990662 
	C388.372345,158.990662 381.688049,158.990662 374.346161,158.191284 
M470.780975,166.159195 
	C471.839966,166.078079 472.898956,165.996948 474.633850,165.875473 
	C476.551514,162.704910 478.469208,159.534332 481.258575,156.370285 
	C484.838043,156.265747 488.417480,156.161209 492.427002,156.361679 
	C493.054688,155.889832 493.682404,155.417984 494.310089,154.946136 
	C493.474060,154.810013 492.638031,154.673889 490.913025,154.349747 
	C480.348022,154.460236 469.783020,154.570724 458.699799,154.351425 
	C458.052429,154.813568 457.405060,155.275696 456.757690,155.737823 
	C457.506927,155.875168 458.256134,156.012527 459.904114,156.305115 
	C461.883972,156.319702 463.902100,156.099121 465.833191,156.413315 
	C467.867554,156.744354 469.818817,157.586304 471.120605,158.429871 
	C470.031006,160.603607 468.941406,162.777359 467.851807,164.951111 
	C468.567352,165.292908 469.282928,165.634705 470.780975,166.159195 
M119.097954,164.174362 
	C112.718895,164.212265 106.339844,164.250168 99.425987,163.752151 
	C99.757317,162.165070 100.258675,160.589706 100.368980,158.987411 
	C100.466316,157.573288 100.127335,156.129150 99.172569,154.427429 
	C91.486870,153.515213 93.816292,161.208466 89.590118,164.825119 
	C92.362564,165.400665 94.148872,166.069916 95.943504,166.093063 
	C104.259071,166.200287 112.577469,166.181519 120.893860,166.103455 
	C127.609016,166.040421 131.322830,161.823151 130.928635,154.793823 
	C129.621643,154.879410 128.309036,154.965378 126.604271,154.674500 
	C125.589615,156.001755 124.513718,157.287369 123.575455,158.666595 
	C122.339615,160.483231 121.211899,162.373428 119.097954,164.174362 
M446.215149,160.425949 
	C446.898956,159.029129 447.582764,157.632309 448.971680,155.702347 
	C446.990204,154.760574 444.949219,153.539078 443.189240,157.043961 
	C440.936218,162.249298 437.276581,161.776520 432.728363,160.181137 
	C426.480011,157.989410 420.059998,156.174622 413.585632,154.801590 
	C411.360535,154.329712 407.805969,154.865311 406.532288,156.363449 
	C404.461029,158.799683 403.767120,162.406906 402.412384,165.714020 
	C409.700897,167.843826 409.218475,161.266724 412.307678,158.011078 
	C420.997040,160.507889 430.023529,163.101562 439.786713,165.980148 
	C444.038177,167.013336 444.247101,163.106064 446.215149,160.425949 
M347.224274,160.107666 
	C347.466827,160.247559 347.709381,160.387466 348.036377,161.229477 
	C347.529846,162.710114 347.023315,164.190735 346.484589,165.765427 
	C352.552643,166.483658 355.475250,163.146454 356.628052,154.687592 
	C350.575653,152.785522 345.375488,155.903473 340.591980,158.378235 
	C332.121857,162.760315 324.886475,162.939621 317.758789,155.969971 
	C316.386627,154.628220 313.475952,154.720734 311.239471,154.475189 
	C310.423309,154.385559 309.022461,155.018127 308.713379,155.696915 
	C307.255646,158.898117 306.084045,162.229614 304.622284,165.999847 
	C307.128357,165.999847 308.741364,165.999847 310.182220,165.999847 
	C311.546967,163.453232 312.825012,161.068390 314.204010,158.495193 
	C316.525177,160.064026 318.492828,161.059311 320.042267,162.503357 
	C324.870697,167.003448 329.924011,167.096420 335.586700,164.155472 
	C339.096558,162.332642 342.903015,161.080978 347.224274,160.107666 
M518.029907,121.978485 
	C519.749512,121.942001 521.469116,121.905525 523.239868,122.686417 
	C522.480530,125.790451 521.721191,128.894485 520.762146,132.528534 
	C520.707458,132.901703 520.652832,133.274887 520.007324,133.957474 
	C518.552490,137.306168 517.097595,140.654877 515.644226,144.580643 
	C515.721375,144.756851 515.798523,144.933060 516.133545,145.837234 
	C526.214905,145.945557 536.297607,146.153870 546.375977,146.025620 
	C547.533203,146.010880 549.074951,144.331268 549.741577,143.058609 
	C552.950684,136.932190 556.016785,130.725281 558.936462,124.455162 
	C560.480164,121.140106 560.088257,118.260658 555.323914,116.688263 
	C552.806824,115.992996 550.282043,114.682320 547.773987,114.713486 
	C538.917603,114.823555 530.066833,115.393219 521.068420,115.094368 
	C521.789001,112.726974 522.509644,110.359581 523.236572,107.080223 
	C522.112976,106.636269 520.992004,105.815849 519.865356,105.807976 
	C510.913147,105.745377 501.959839,105.837135 492.502991,105.558334 
	C491.471191,106.186554 489.922760,106.567490 489.485809,107.480438 
	C483.842438,119.271332 478.369141,131.143524 472.823608,142.981461 
	C471.502472,145.801651 472.789551,146.173019 476.083527,145.750580 
	C478.220459,145.765717 480.359436,145.847855 482.493988,145.783905 
	C490.003815,145.558853 497.512146,145.283646 505.701569,144.911560 
	C507.217285,141.842468 508.733032,138.773376 510.480347,135.137085 
	C510.513184,134.731323 510.546021,134.325546 511.265717,133.681351 
	C513.239685,129.844803 515.213684,126.008263 518.029907,121.978485 
M426.536102,118.088318 
	C428.785248,119.066956 431.034363,120.045586 434.244141,121.442215 
	C430.614990,129.101898 426.900604,136.941513 422.794006,145.608932 
	C433.862335,145.608932 443.961243,145.685745 454.055023,145.494949 
	C455.111969,145.474960 456.532196,144.079407 457.112335,142.970673 
	C459.713257,137.999832 462.223480,132.968460 464.470581,127.829567 
	C466.406982,123.401154 468.229919,119.645042 474.354065,120.309074 
	C476.249146,120.514549 478.453064,117.871185 480.515594,116.532158 
	C480.256439,115.998978 479.997284,115.465797 479.738129,114.932617 
	C477.391754,114.585167 475.045380,114.237724 472.072998,113.797577 
	C472.947205,111.018700 473.692993,108.648109 474.646515,105.617241 
	C464.194702,105.617241 454.257172,105.540863 444.324310,105.721840 
	C443.187500,105.742546 441.581543,106.955399 441.041138,108.038574 
	C438.878784,112.372643 436.123138,115.302307 430.748138,114.416389 
	C429.914185,114.278938 428.930664,115.048683 427.092896,115.169388 
	C417.976624,114.881302 408.858948,114.385208 399.745087,114.448059 
	C397.400299,114.464233 394.718170,115.797661 392.807312,117.306488 
	C389.538879,119.887245 386.757019,123.084206 382.706970,127.069122 
	C382.706970,122.891975 382.856659,120.280884 382.637634,117.701096 
	C382.542053,116.574860 381.701752,114.568733 381.182068,114.563042 
	C373.378418,114.477386 365.563782,114.509880 357.774200,114.930969 
	C356.537750,114.997810 355.413635,117.099724 354.233307,118.256332 
	C351.942352,120.501213 349.648376,122.742966 346.195679,126.120850 
	C345.867401,122.380928 345.985321,120.096344 345.374176,118.027092 
	C344.960846,116.627609 343.550781,114.489929 342.536133,114.461159 
	C332.941864,114.189125 323.336761,114.299248 312.951324,114.299248 
	C314.481110,124.644028 315.766205,134.285751 317.513611,143.842941 
	C317.712799,144.932327 320.475616,146.195831 322.099274,146.268326 
	C328.417664,146.550446 334.763947,146.192017 341.084351,146.451035 
	C345.597595,146.636002 349.023621,145.347672 351.974609,141.783356 
	C354.544952,138.678848 357.782410,136.126663 361.760590,132.346466 
	C361.760590,135.971375 361.988373,138.405945 361.710876,140.781494 
	C361.207397,145.091965 363.112915,146.228653 367.146210,146.082123 
	C374.300720,145.822174 381.495880,146.354370 388.623901,145.848633 
	C391.641571,145.634506 395.067902,144.269684 397.380127,142.324371 
	C404.227234,136.563736 410.542297,130.175873 417.210968,124.195526 
	C419.955231,121.734505 423.071167,119.687943 426.536102,118.088318 
M67.123077,91.998390 
	C62.484226,92.422844 57.775501,92.482445 53.222370,93.354469 
	C45.784470,94.778999 38.542198,96.932053 34.809608,104.556602 
	C30.162521,114.049179 25.523798,123.546967 21.008350,133.102463 
	C18.242140,138.956268 19.405247,142.501755 25.565584,144.017532 
	C31.808022,145.553497 38.361759,146.435074 44.790035,146.498383 
	C71.450790,146.761002 98.117126,146.756119 124.778000,146.497406 
	C131.384720,146.433304 138.112244,145.602875 144.526321,144.055573 
	C148.140533,143.183701 152.556564,140.897934 154.286697,137.905167 
	C158.328598,130.913559 160.966751,123.110451 164.441788,115.010414 
	C161.597656,115.010414 159.614273,115.010376 157.630890,115.010429 
	C139.799759,115.010864 121.968636,115.011513 104.137512,115.011688 
	C95.829651,115.011765 92.267471,118.118935 90.662170,126.980080 
	C91.805084,127.093269 92.927963,127.207108 94.051407,127.315033 
	C95.322495,127.437141 96.594086,127.553917 97.883781,127.674728 
	C97.111000,132.813110 93.489525,134.601654 86.428741,134.082733 
	C82.766411,133.813583 82.088020,132.004761 83.395958,129.125641 
	C86.682556,121.890915 89.981972,114.653831 93.579163,107.571541 
	C95.651779,103.490906 106.270844,102.186478 107.501808,105.885391 
	C108.613136,109.224785 110.408112,108.783806 112.618538,108.784943 
	C129.449783,108.793587 146.281036,108.796753 163.112274,108.782722 
	C167.919403,108.778717 170.745270,106.399246 171.448853,101.413452 
	C172.044846,97.190147 168.935989,95.560905 165.700043,94.436066 
	C163.522034,93.678986 161.181778,93.054291 158.897293,92.992607 
	C144.924347,92.615334 130.946579,92.415924 116.048485,92.001167 
	C100.042877,92.051498 84.037277,92.101830 67.123077,91.998390 
M287.455109,114.321358 
	C272.628326,114.455360 257.797638,114.429161 242.976532,114.793869 
	C236.021317,114.965034 230.556335,117.800972 228.215363,125.118301 
	C227.372940,127.751572 225.650375,130.109085 224.286942,132.568863 
	C218.527451,142.959488 219.691772,145.015259 231.777435,145.743240 
	C232.110107,145.763290 232.443008,145.793732 232.775864,145.794861 
	C248.439163,145.847778 264.104340,146.044418 279.764465,145.845703 
	C283.687073,145.795929 287.733795,144.878830 291.456116,143.588821 
	C293.783752,142.782166 296.295990,140.938156 297.530884,138.852417 
	C300.803070,133.325699 303.306000,127.350204 306.349762,121.679276 
	C308.346466,117.959282 306.678528,116.241287 303.311737,115.756874 
	C298.386475,115.048233 293.397522,114.782227 287.455109,114.321358 
M190.511017,114.531006 
	C179.172012,112.350037 171.883881,116.453506 169.400116,128.087769 
	C169.269135,128.701370 168.684555,129.203659 168.415222,129.804443 
	C166.169250,134.814743 163.947754,139.835999 161.323196,145.744659 
	C172.608170,145.744659 182.702332,145.806351 192.792999,145.646347 
	C193.769882,145.630829 195.072983,144.437683 195.625336,143.454498 
	C197.318726,140.440247 199.211975,137.401093 200.139832,134.120544 
	C202.586777,125.469131 209.024963,123.075066 216.858612,122.912407 
	C220.717010,122.832298 223.811661,122.509964 224.295486,117.748840 
	C224.414383,116.578934 225.322250,115.489204 225.793442,114.515480 
	C214.192261,114.515480 202.849167,114.515480 190.511017,114.531006 
M512.485229,161.368912 
	C516.897949,161.368912 521.310608,161.368912 525.723328,161.368912 
	C525.708252,160.747650 525.693176,160.126389 525.678101,159.505127 
	C518.876221,159.505127 512.074341,159.505127 505.272461,159.505127 
	C505.227417,159.960098 505.182343,160.415054 505.137268,160.870026 
	C507.249207,161.036331 509.361176,161.202637 512.485229,161.368912 
z"/>
<path fill="#FF0730" opacity="1.000000" stroke="none" 
	d="
M116.970428,92.157234 
	C130.946579,92.415924 144.924347,92.615334 158.897293,92.992607 
	C161.181778,93.054291 163.522034,93.678986 165.700043,94.436066 
	C168.935989,95.560905 172.044846,97.190147 171.448853,101.413452 
	C170.745270,106.399246 167.919403,108.778717 163.112274,108.782722 
	C146.281036,108.796753 129.449783,108.793587 112.618538,108.784943 
	C110.408112,108.783806 108.613136,109.224785 107.501808,105.885391 
	C106.270844,102.186478 95.651779,103.490906 93.579163,107.571541 
	C89.981972,114.653831 86.682556,121.890915 83.395958,129.125641 
	C82.088020,132.004761 82.766411,133.813583 86.428741,134.082733 
	C93.489525,134.601654 97.111000,132.813110 97.883781,127.674728 
	C96.594086,127.553917 95.322495,127.437141 94.051407,127.315033 
	C92.927963,127.207108 91.805084,127.093269 90.662170,126.980080 
	C92.267471,118.118935 95.829651,115.011765 104.137512,115.011688 
	C121.968636,115.011513 139.799759,115.010864 157.630890,115.010429 
	C159.614273,115.010376 161.597656,115.010414 164.441788,115.010414 
	C160.966751,123.110451 158.328598,130.913559 154.286697,137.905167 
	C152.556564,140.897934 148.140533,143.183701 144.526321,144.055573 
	C138.112244,145.602875 131.384720,146.433304 124.778000,146.497406 
	C98.117126,146.756119 71.450790,146.761002 44.790035,146.498383 
	C38.361759,146.435074 31.808022,145.553497 25.565584,144.017532 
	C19.405247,142.501755 18.242140,138.956268 21.008350,133.102463 
	C25.523798,123.546967 30.162521,114.049179 34.809608,104.556602 
	C38.542198,96.932053 45.784470,94.778999 53.222370,93.354469 
	C57.775501,92.482445 62.484226,92.422844 67.896561,92.335274 
	C84.183540,92.765671 99.696999,92.867989 115.210632,92.918686 
	C115.796394,92.920609 116.383789,92.422386 116.970428,92.157234 
z"/>
<path fill="#0BA2E4" opacity="1.000000" stroke="none" 
	d="
M426.018066,117.452866 
	C423.071167,119.687943 419.955231,121.734505 417.210968,124.195526 
	C410.542297,130.175873 404.227234,136.563736 397.380127,142.324371 
	C395.067902,144.269684 391.641571,145.634506 388.623901,145.848633 
	C381.495880,146.354370 374.300720,145.822174 367.146210,146.082123 
	C363.112915,146.228653 361.207397,145.091965 361.710876,140.781494 
	C361.988373,138.405945 361.760590,135.971375 361.760590,132.346466 
	C357.782410,136.126663 354.544952,138.678848 351.974609,141.783356 
	C349.023621,145.347672 345.597595,146.636002 341.084351,146.451035 
	C334.763947,146.192017 328.417664,146.550446 322.099274,146.268326 
	C320.475616,146.195831 317.712799,144.932327 317.513611,143.842941 
	C315.766205,134.285751 314.481110,124.644028 312.951324,114.299248 
	C323.336761,114.299248 332.941864,114.189125 342.536133,114.461159 
	C343.550781,114.489929 344.960846,116.627609 345.374176,118.027092 
	C345.985321,120.096344 345.867401,122.380928 346.195679,126.120850 
	C349.648376,122.742966 351.942352,120.501213 354.233307,118.256332 
	C355.413635,117.099724 356.537750,114.997810 357.774200,114.930969 
	C365.563782,114.509880 373.378418,114.477386 381.182068,114.563042 
	C381.701752,114.568733 382.542053,116.574860 382.637634,117.701096 
	C382.856659,120.280884 382.706970,122.891975 382.706970,127.069122 
	C386.757019,123.084206 389.538879,119.887245 392.807312,117.306488 
	C394.718170,115.797661 397.400299,114.464233 399.745087,114.448059 
	C408.858948,114.385208 417.976624,114.881302 427.563232,115.252228 
	C428.033600,115.335060 428.044098,115.456909 427.604828,115.445770 
	C426.761902,116.137268 426.358276,116.839905 425.982788,117.528831 
	C426.010956,117.515121 426.018066,117.452866 426.018066,117.452866 
z"/>
<path fill="#09A1E4" opacity="1.000000" stroke="none" 
	d="
M510.578857,133.919785 
	C510.546021,134.325546 510.513184,134.731323 510.045227,135.502853 
	C508.080383,138.921555 506.550690,141.974503 505.021027,145.027451 
	C497.512146,145.283646 490.003815,145.558853 482.493988,145.783905 
	C480.359436,145.847855 478.220459,145.765717 475.576843,145.319458 
	C475.320404,143.461166 475.302490,141.916428 475.867676,140.627380 
	C478.193573,135.322479 480.584808,130.039658 483.163086,124.853645 
	C486.334351,118.474937 489.716095,112.200836 493.006866,105.881516 
	C501.959839,105.837135 510.913147,105.745377 519.865356,105.807976 
	C520.992004,105.815849 522.112976,106.636269 522.897461,107.681625 
	C521.096680,110.623940 519.635010,112.964844 517.755737,115.974411 
	C519.630554,115.873688 520.422241,115.831146 521.213989,115.788605 
	C530.066833,115.393219 538.917603,114.823555 547.773987,114.713486 
	C550.282043,114.682320 552.806824,115.992996 555.686401,117.263062 
	C556.137451,120.061501 556.931396,122.564209 556.182678,124.456528 
	C553.923401,130.166458 550.674683,135.498123 548.590454,141.259003 
	C547.402161,144.543655 545.647339,145.100998 542.726318,145.078720 
	C533.776672,145.010391 524.825989,145.088257 515.875671,145.109268 
	C515.798523,144.933060 515.721375,144.756851 515.997559,144.158096 
	C517.766724,140.373047 519.182495,137.010559 520.598206,133.648071 
	C520.652832,133.274887 520.707458,132.901703 521.235352,132.221451 
	C523.121948,129.216766 524.601562,126.548027 525.815857,123.763603 
	C525.907349,123.553894 524.108704,122.519867 523.188721,121.869034 
	C521.469116,121.905525 519.749512,121.942001 517.245483,122.038498 
	C514.500305,126.038933 512.539551,129.979355 510.578857,133.919785 
z"/>
<path fill="#09A1E4" opacity="1.000000" stroke="none" 
	d="
M287.945435,114.324463 
	C293.397522,114.782227 298.386475,115.048233 303.311737,115.756874 
	C306.678528,116.241287 308.346466,117.959282 306.349762,121.679276 
	C303.306000,127.350204 300.803070,133.325699 297.530884,138.852417 
	C296.295990,140.938156 293.783752,142.782166 291.456116,143.588821 
	C287.733795,144.878830 283.687073,145.795929 279.764465,145.845703 
	C264.104340,146.044418 248.439163,145.847778 232.775864,145.794861 
	C232.443008,145.793732 232.110107,145.763290 231.777435,145.743240 
	C219.691772,145.015259 218.527451,142.959488 224.286942,132.568863 
	C225.650375,130.109085 227.372940,127.751572 228.215363,125.118301 
	C230.556335,117.800972 236.021317,114.965034 242.976532,114.793869 
	C257.797638,114.429161 272.628326,114.455360 287.945435,114.324463 
M266.940430,135.365326 
	C268.197784,132.179733 269.337311,128.941071 270.742249,125.821976 
	C272.507172,121.903763 271.633789,120.232170 267.374725,120.949516 
	C265.333954,121.293243 262.868958,122.890305 261.826904,124.649017 
	C259.222595,129.044403 257.322052,133.856766 255.038818,138.715210 
	C260.204712,141.077164 263.935089,140.577972 266.940430,135.365326 
z"/>
<path fill="#0BA2E4" opacity="1.000000" stroke="none" 
	d="
M426.277100,117.770592 
	C426.018066,117.452866 426.010956,117.515121 426.433197,117.557892 
	C427.251648,116.886078 427.647888,116.171494 428.044098,115.456909 
	C428.044098,115.456909 428.033600,115.335060 428.024963,115.366982 
	C428.930664,115.048683 429.914185,114.278938 430.748138,114.416389 
	C436.123138,115.302307 438.878784,112.372643 441.041138,108.038574 
	C441.581543,106.955399 443.187500,105.742546 444.324310,105.721840 
	C454.257172,105.540863 464.194702,105.617241 474.646515,105.617241 
	C473.692993,108.648109 472.947205,111.018700 472.072998,113.797577 
	C475.045380,114.237724 477.391754,114.585167 479.738129,114.932617 
	C479.997284,115.465797 480.256439,115.998978 480.515594,116.532158 
	C478.453064,117.871185 476.249146,120.514549 474.354065,120.309074 
	C468.229919,119.645042 466.406982,123.401154 464.470581,127.829567 
	C462.223480,132.968460 459.713257,137.999832 457.112335,142.970673 
	C456.532196,144.079407 455.111969,145.474960 454.055023,145.494949 
	C443.961243,145.685745 433.862335,145.608932 422.794006,145.608932 
	C426.900604,136.941513 430.614990,129.101898 434.244141,121.442215 
	C431.034363,120.045586 428.785248,119.066956 426.277100,117.770592 
z"/>
<path fill="#0AA2E4" opacity="1.000000" stroke="none" 
	d="
M191.008545,114.523239 
	C202.849167,114.515480 214.192261,114.515480 225.793442,114.515480 
	C225.322250,115.489204 224.414383,116.578934 224.295486,117.748840 
	C223.811661,122.509964 220.717010,122.832298 216.858612,122.912407 
	C209.024963,123.075066 202.586777,125.469131 200.139832,134.120544 
	C199.211975,137.401093 197.318726,140.440247 195.625336,143.454498 
	C195.072983,144.437683 193.769882,145.630829 192.792999,145.646347 
	C182.702332,145.806351 172.608170,145.744659 161.323196,145.744659 
	C163.947754,139.835999 166.169250,134.814743 168.415222,129.804443 
	C168.684555,129.203659 169.269135,128.701370 169.400116,128.087769 
	C171.883881,116.453506 179.172012,112.350037 191.008545,114.523239 
z"/>
<path fill="#302F2F" opacity="1.000000" stroke="none" 
	d="
M346.576355,159.572937 
	C342.903015,161.080978 339.096558,162.332642 335.586700,164.155472 
	C329.924011,167.096420 324.870697,167.003448 320.042267,162.503357 
	C318.492828,161.059311 316.525177,160.064026 314.204010,158.495193 
	C312.825012,161.068390 311.546967,163.453232 310.182220,165.999847 
	C308.741364,165.999847 307.128357,165.999847 304.622284,165.999847 
	C306.084045,162.229614 307.255646,158.898117 308.713379,155.696915 
	C309.022461,155.018127 310.423309,154.385559 311.239471,154.475189 
	C313.475952,154.720734 316.386627,154.628220 317.758789,155.969971 
	C324.886475,162.939621 332.121857,162.760315 340.591980,158.378235 
	C345.375488,155.903473 350.575653,152.785522 356.628052,154.687592 
	C355.475250,163.146454 352.552643,166.483658 346.484589,165.765427 
	C347.023315,164.190735 347.529846,162.710114 348.208282,160.602631 
	C347.778900,159.841522 347.177643,159.707230 346.576355,159.572937 
z"/>
<path fill="#302F2F" opacity="1.000000" stroke="none" 
	d="
M448.266602,156.235504 
	C447.582764,157.632309 446.898956,159.029129 445.826111,160.507294 
	C444.422272,160.598450 443.213135,160.258484 442.433563,160.691620 
	C440.863312,161.564087 439.526947,162.857422 438.093475,163.977600 
	C438.292786,164.335480 438.671387,165.015366 439.050018,165.695251 
	C430.023529,163.101562 420.997040,160.507889 412.307678,158.011078 
	C409.218475,161.266724 409.700897,167.843826 402.412384,165.714020 
	C403.767120,162.406906 404.461029,158.799683 406.532288,156.363449 
	C407.805969,154.865311 411.360535,154.329712 413.585632,154.801590 
	C420.059998,156.174622 426.480011,157.989410 432.728363,160.181137 
	C437.276581,161.776520 440.936218,162.249298 443.666840,157.183899 
	C445.518494,156.961075 446.892548,156.598282 448.266602,156.235504 
M432.152802,161.166397 
	C431.376892,161.166397 430.600952,161.166397 429.825043,161.166397 
	C429.796356,161.350693 429.767670,161.534988 429.739014,161.719299 
	C431.178986,162.140518 432.618958,162.561737 434.058960,162.982956 
	C434.136719,162.776138 434.214478,162.569321 434.292267,162.362503 
	C433.781067,162.037354 433.269836,161.712219 432.152802,161.166397 
z"/>
<path fill="#2D2C2C" opacity="1.000000" stroke="none" 
	d="
M217.021362,160.889130 
	C208.603958,161.177017 200.186554,161.464905 190.960175,161.852585 
	C189.401520,163.190002 188.651871,164.427643 187.902222,165.665283 
	C186.545624,165.829010 185.189041,165.992737 183.466858,165.656891 
	C184.404984,161.748718 185.708694,158.340103 187.012405,154.931473 
	C197.752151,154.792404 208.491898,154.653351 219.588470,155.085190 
	C219.609955,157.059448 219.274643,158.462799 218.939331,159.866150 
	C218.939331,159.866150 218.951111,159.948486 218.615433,159.920776 
	C217.860291,160.225082 217.440826,160.557114 217.021362,160.889130 
M203.457123,156.129028 
	C192.719589,156.128174 192.719589,156.128174 191.206726,158.742279 
	C198.741821,158.742279 206.393158,158.742279 214.044495,158.742279 
	C214.063049,158.027908 214.081604,157.313522 214.100159,156.599152 
	C210.869751,156.442459 207.639359,156.285767 203.457123,156.129028 
z"/>
<path fill="#0E0E0E" opacity="1.000000" stroke="none" 
	d="
M126.996429,155.051331 
	C128.309036,154.965378 129.621643,154.879410 130.928635,154.793823 
	C131.322830,161.823151 127.609016,166.040421 120.893860,166.103455 
	C112.577469,166.181519 104.259071,166.200287 95.943504,166.093063 
	C94.148872,166.069916 92.362564,165.400665 89.590118,164.825119 
	C93.816292,161.208466 91.486870,153.515213 99.583130,154.957199 
	C99.108994,157.761261 98.041924,159.984879 97.391739,162.324341 
	C96.761879,164.590698 97.639565,165.546631 99.960785,164.288071 
	C106.339844,164.250168 112.718895,164.212265 119.780731,164.438766 
	C125.939407,163.718338 124.947418,158.355667 126.996429,155.051331 
z"/>
<path fill="#65C1EB" opacity="1.000000" stroke="none" 
	d="
M516.004639,145.473251 
	C524.825989,145.088257 533.776672,145.010391 542.726318,145.078720 
	C545.647339,145.100998 547.402161,144.543655 548.590454,141.259003 
	C550.674683,135.498123 553.923401,130.166458 556.182678,124.456528 
	C556.931396,122.564209 556.137451,120.061501 556.005127,117.447800 
	C560.088257,118.260658 560.480164,121.140106 558.936462,124.455162 
	C556.016785,130.725281 552.950684,136.932190 549.741577,143.058609 
	C549.074951,144.331268 547.533203,146.010880 546.375977,146.025620 
	C536.297607,146.153870 526.214905,145.945557 516.004639,145.473251 
z"/>
<path fill="#272626" opacity="1.000000" stroke="none" 
	d="
M150.004715,154.636063 
	C158.742035,154.631912 167.479355,154.627762 176.601807,155.149353 
	C176.619095,156.998642 176.251251,158.322159 175.883408,159.645691 
	C172.491989,160.444214 169.136734,161.595383 165.699570,161.947800 
	C161.811691,162.346436 157.850311,162.028076 153.459930,161.626770 
	C152.999527,160.815094 153.000061,160.398132 153.455795,159.878357 
	C159.348465,159.558350 164.785950,159.341125 170.223434,159.123917 
	C170.221802,158.261749 170.220169,157.399582 170.218536,156.537415 
	C163.477966,156.332108 156.737411,156.126816 149.995850,155.707230 
	C149.983704,155.207153 149.986984,154.921524 150.004715,154.636063 
z"/>
<path fill="#1E1E1D" opacity="1.000000" stroke="none" 
	d="
M471.806366,158.205032 
	C469.818817,157.586304 467.867554,156.744354 465.833191,156.413315 
	C463.902100,156.099121 461.883972,156.319702 459.532928,155.989227 
	C459.180481,155.342636 459.199249,155.011932 459.218018,154.681213 
	C469.783020,154.570724 480.348022,154.460236 491.330536,154.701416 
	C491.831024,155.387604 491.914001,155.722137 491.996948,156.056671 
	C488.417480,156.161209 484.838043,156.265747 480.448914,156.246124 
	C477.745483,159.386597 475.851715,162.651215 473.957947,165.915833 
	C472.898956,165.996948 471.839966,166.078079 470.375671,165.693863 
	C470.582367,162.887360 471.194366,160.546204 471.806366,158.205032 
z"/>
<path fill="#0B0A0A" opacity="1.000000" stroke="none" 
	d="
M274.947723,164.316147 
	C280.954651,164.275055 286.961578,164.233978 293.386658,164.544800 
	C293.863739,165.250259 293.922668,165.603790 293.981598,165.957336 
	C284.421448,165.957336 274.861298,165.957336 265.515472,165.957336 
	C265.998077,163.814865 266.444611,161.832458 267.378662,159.474274 
	C268.974579,157.597412 270.082977,156.096329 271.191406,154.595245 
	C272.471100,154.534607 273.750824,154.473969 275.342438,154.768265 
	C275.230682,156.397141 274.806976,157.671097 274.219238,159.264084 
	C272.644379,160.357941 271.233521,161.132751 269.822693,161.907562 
	C270.228729,162.625351 270.634766,163.343124 271.040802,164.060898 
	C272.343109,164.145981 273.645416,164.231064 274.947723,164.316147 
z"/>
<path fill="#65C1EB" opacity="1.000000" stroke="none" 
	d="
M492.754944,105.719925 
	C489.716095,112.200836 486.334351,118.474937 483.163086,124.853645 
	C480.584808,130.039658 478.193573,135.322479 475.867676,140.627380 
	C475.302490,141.916428 475.320404,143.461166 475.123352,145.264114 
	C472.789551,146.173019 471.502472,145.801651 472.823608,142.981461 
	C478.369141,131.143524 483.842438,119.271332 489.485809,107.480438 
	C489.922760,106.567490 491.471191,106.186554 492.754944,105.719925 
z"/>
<path fill="#0B0A0A" opacity="1.000000" stroke="none" 
	d="
M366.797485,156.774155 
	C367.171570,152.888260 370.221893,154.994324 372.511292,154.839645 
	C372.843628,156.844086 372.738525,158.426376 372.238525,160.113861 
	C370.982361,161.489365 370.121124,162.759674 369.259857,164.029984 
	C370.490570,164.114746 371.721252,164.199509 372.951965,164.284286 
	C378.625336,164.251434 384.298737,164.218597 390.372498,164.518341 
	C390.839264,165.212799 390.905640,165.574661 390.972046,165.936508 
	C382.530823,165.979233 374.089600,166.021942 365.239868,165.485657 
	C364.878204,163.924042 364.925079,162.941422 364.971954,161.958801 
	C364.961609,161.791107 364.951294,161.623413 365.366791,161.095123 
	C366.127594,159.414413 366.462555,158.094284 366.797485,156.774155 
z"/>
<path fill="#575656" opacity="1.000000" stroke="none" 
	d="
M54.855667,154.552948 
	C64.507332,154.552948 74.158997,154.552948 83.810661,154.552948 
	C83.828400,155.161591 83.846130,155.770248 83.863869,156.378891 
	C74.527100,156.456161 65.190338,156.533417 55.371170,156.425842 
	C54.877735,155.678329 54.866703,155.115631 54.855667,154.552948 
z"/>
<path fill="#595857" opacity="1.000000" stroke="none" 
	d="
M372.633423,160.008667 
	C372.738525,158.426376 372.843628,156.844086 372.877319,154.895645 
	C381.602753,154.529495 390.399597,154.529495 399.196472,154.529495 
	C399.201263,155.193771 399.206085,155.858032 399.210876,156.522308 
	C392.826843,156.522308 386.438782,156.396271 380.061188,156.598907 
	C378.141235,156.659927 376.250366,157.634949 374.500702,158.808319 
	C373.981293,159.619781 373.307373,159.814224 372.633423,160.008667 
z"/>
<path fill="#555454" opacity="1.000000" stroke="none" 
	d="
M507.853577,154.539825 
	C517.299500,154.539825 526.745483,154.539825 536.191406,154.539825 
	C536.193848,155.256836 536.196228,155.973862 536.198669,156.690872 
	C526.761414,156.690872 517.324097,156.690872 507.450989,156.482544 
	C507.294647,155.696091 507.574127,155.117966 507.853577,154.539825 
z"/>
<path fill="#161515" opacity="1.000000" stroke="none" 
	d="
M72.039047,159.171982 
	C74.050163,159.178040 76.061279,159.184113 78.574554,159.642212 
	C79.627846,160.410751 80.178970,160.727249 80.730095,161.043747 
	C79.688904,162.654068 78.689789,165.630325 77.600037,165.663879 
	C66.428978,166.007950 55.243225,165.874710 44.061569,165.874710 
	C44.041611,165.286209 44.021652,164.697723 44.001690,164.109222 
	C54.510464,164.109222 65.019241,164.109222 75.528015,164.109222 
	C75.558060,163.552414 75.588104,162.995605 75.618149,162.438797 
	C74.639847,162.043228 73.661545,161.647659 72.358124,160.682465 
	C72.035019,159.799225 72.037033,159.485611 72.039047,159.171982 
z"/>
<path fill="#4D4D4C" opacity="1.000000" stroke="none" 
	d="
M372.238525,160.113861 
	C373.307373,159.814224 373.981293,159.619781 374.829498,159.208008 
	C381.688049,158.990662 388.372345,158.990662 395.056641,158.990662 
	C395.120453,159.474762 395.184296,159.958847 395.248108,160.442947 
	C393.660980,160.724167 392.078461,161.212311 390.485840,161.247910 
	C385.682800,161.355240 380.869232,161.149673 376.074890,161.379974 
	C374.829163,161.439835 373.638519,162.647003 372.687256,163.805740 
	C371.721252,164.199509 370.490570,164.114746 369.259857,164.029984 
	C370.121124,162.759674 370.982361,161.489365 372.238525,160.113861 
z"/>
<path fill="#4C4B4B" opacity="1.000000" stroke="none" 
	d="
M274.637817,163.990295 
	C273.645416,164.231064 272.343109,164.145981 271.040802,164.060898 
	C270.634766,163.343124 270.228729,162.625351 269.822693,161.907562 
	C271.233521,161.132751 272.644379,160.357941 274.504944,159.281128 
	C275.340118,158.970123 275.725555,158.961136 276.110962,158.952133 
	C281.430939,158.939133 286.750885,158.926132 292.629791,159.113846 
	C293.459137,159.220108 293.729553,159.125656 293.999969,159.031189 
	C294.966980,159.111603 295.933990,159.192017 296.901001,159.272430 
	C296.952576,159.610031 297.004181,159.947647 297.055756,160.285263 
	C295.308044,160.617661 293.567535,161.182922 291.811188,161.237366 
	C287.157410,161.381699 282.487457,161.147522 277.845306,161.423553 
	C276.632690,161.495667 275.498230,162.881805 274.637817,163.990295 
z"/>
<path fill="#595857" opacity="1.000000" stroke="none" 
	d="
M275.946838,158.524353 
	C275.725555,158.961136 275.340118,158.970123 274.669006,158.962067 
	C274.806976,157.671097 275.230682,156.397141 275.724060,154.826477 
	C284.026855,154.529739 292.259949,154.529739 300.493073,154.529739 
	C300.507019,155.196274 300.520966,155.862793 300.534912,156.529327 
	C295.208740,156.529327 289.874451,156.353607 284.559540,156.598663 
	C281.617157,156.734344 278.707245,157.574173 275.946838,158.524353 
z"/>
<path fill="#595857" opacity="1.000000" stroke="none" 
	d="
M233.393021,154.595627 
	C236.917709,154.542542 236.868256,154.523834 235.876160,157.146912 
	C235.163025,159.032349 234.604126,160.976105 233.667908,163.836487 
	C241.506638,163.836487 248.312912,163.836487 255.119171,163.836487 
	C255.197189,164.182220 255.275192,164.527939 255.353195,164.873672 
	C254.783508,165.305557 254.213821,165.737457 253.062897,165.756500 
	C245.366165,165.100235 238.250687,164.856812 231.336884,164.620300 
	C232.170013,160.558365 232.781509,157.576996 233.393021,154.595627 
z"/>
<path fill="#767675" opacity="1.000000" stroke="none" 
	d="
M498.001282,166.058334 
	C497.119934,166.058334 496.238586,166.058334 495.357208,166.058334 
	C495.266571,165.612579 495.175934,165.166824 495.085297,164.721069 
	C496.944672,164.358063 498.799316,163.712906 500.664185,163.681946 
	C507.930389,163.561295 515.205200,163.474640 522.465332,163.717621 
	C525.291138,163.812180 526.767151,162.805435 528.108154,160.902496 
	C529.151550,164.954254 526.645935,164.812943 524.494690,164.831757 
	C517.162109,164.895905 509.827637,164.794128 502.496582,164.916016 
	C500.992218,164.941010 499.499420,165.659500 498.001282,166.058334 
z"/>
<path fill="#232222" opacity="1.000000" stroke="none" 
	d="
M149.651581,154.488861 
	C149.986984,154.921524 149.983704,155.207153 149.710800,155.850815 
	C148.804306,157.061493 148.181854,157.914276 147.192215,159.270142 
	C149.542435,159.557831 151.271515,159.769501 153.000610,159.981171 
	C153.000061,160.398132 152.999527,160.815094 152.998047,161.544769 
	C151.624817,161.919586 150.252533,161.981659 148.116852,161.981781 
	C146.222504,163.246414 145.091599,164.573044 143.960678,165.899658 
	C142.901474,165.996506 141.842285,166.093353 140.366379,165.702515 
	C141.301682,161.797211 142.653687,158.379562 144.005692,154.961945 
	C145.769943,154.755188 147.534210,154.548431 149.651581,154.488861 
z"/>
<path fill="#0B0A0A" opacity="1.000000" stroke="none" 
	d="
M232.947281,154.512985 
	C232.781509,157.576996 232.170013,160.558365 231.336884,164.620300 
	C238.250687,164.856812 245.366165,165.100235 252.743500,165.675278 
	C244.311554,166.045013 235.617783,166.083130 226.342133,165.730652 
	C226.656326,162.501831 227.552353,159.663589 228.448364,156.825333 
	C229.799423,156.027008 231.150482,155.228668 232.947281,154.512985 
z"/>
<path fill="#302F2F" opacity="1.000000" stroke="none" 
	d="
M71.642838,159.070831 
	C72.037033,159.485611 72.035019,159.799225 72.021606,160.583115 
	C64.926865,161.130188 57.843536,161.206985 50.597313,160.895477 
	C51.346695,159.912872 52.258968,159.318573 53.171242,158.724289 
	C59.196369,158.806091 65.221497,158.887878 71.642838,159.070831 
z"/>
<path fill="#141313" opacity="1.000000" stroke="none" 
	d="
M498.468079,166.102753 
	C499.499420,165.659500 500.992218,164.941010 502.496582,164.916016 
	C509.827637,164.794128 517.162109,164.895905 524.494690,164.831757 
	C526.645935,164.812943 529.151550,164.954254 528.569031,161.098450 
	C529.778503,160.584152 531.091248,160.475464 532.404053,160.366776 
	C532.394714,161.666565 532.863037,163.773895 532.286560,164.114838 
	C530.552124,165.140732 528.421570,165.957535 526.426208,166.002655 
	C517.266052,166.209854 508.099274,166.126343 498.468079,166.102753 
z"/>
<path fill="#FF1319" opacity="1.000000" stroke="none" 
	d="
M116.509460,92.079201 
	C116.383789,92.422386 115.796394,92.920609 115.210632,92.918686 
	C99.696999,92.867989 84.183540,92.765671 68.350861,92.412155 
	C84.037277,92.101830 100.042877,92.051498 116.509460,92.079201 
z"/>
<path fill="#302F2F" opacity="1.000000" stroke="none" 
	d="
M511.979187,161.368927 
	C509.361176,161.202637 507.249207,161.036331 505.137268,160.870026 
	C505.182343,160.415054 505.227417,159.960098 505.272461,159.505127 
	C512.074341,159.505127 518.876221,159.505127 525.678101,159.505127 
	C525.693176,160.126389 525.708252,160.747650 525.723328,161.368912 
	C521.310608,161.368912 516.897949,161.368912 511.979187,161.368927 
z"/>
<path fill="#141313" opacity="1.000000" stroke="none" 
	d="
M507.476562,154.473572 
	C507.574127,155.117966 507.294647,155.696091 506.980591,156.526154 
	C506.286011,158.041000 505.626038,159.303925 504.439209,161.575104 
	C503.168701,160.873001 501.458832,159.928101 499.748962,158.983200 
	C501.383575,157.509689 502.946747,155.941772 504.695160,154.618607 
	C505.238617,154.207275 506.283936,154.459091 507.476562,154.473572 
z"/>
<path fill="#161515" opacity="1.000000" stroke="none" 
	d="
M53.200401,158.427124 
	C52.258968,159.318573 51.346695,159.912872 50.213863,160.762848 
	C46.811539,160.840515 45.421329,159.573944 48.298103,157.118973 
	C49.865463,155.781433 52.172821,155.311035 54.501053,154.501251 
	C54.866703,155.115631 54.877735,155.678329 54.905842,156.524902 
	C54.358463,157.249191 53.794014,157.689575 53.200401,158.427124 
z"/>
<path fill="#575656" opacity="1.000000" stroke="none" 
	d="
M126.800354,154.862915 
	C124.947418,158.355667 125.939407,163.718338 120.250595,164.467575 
	C121.211899,162.373428 122.339615,160.483231 123.575455,158.666595 
	C124.513718,157.287369 125.589615,156.001755 126.800354,154.862915 
z"/>
<path fill="#65C1EB" opacity="1.000000" stroke="none" 
	d="
M523.214294,122.277725 
	C524.108704,122.519867 525.907349,123.553894 525.815857,123.763603 
	C524.601562,126.548027 523.121948,129.216766 521.335205,131.956436 
	C521.721191,128.894485 522.480530,125.790451 523.214294,122.277725 
z"/>
<path fill="#65C1EB" opacity="1.000000" stroke="none" 
	d="
M510.922302,133.800568 
	C512.539551,129.979355 514.500305,126.038933 516.824341,122.135117 
	C515.213684,126.008263 513.239685,129.844803 510.922302,133.800568 
z"/>
<path fill="#B2B1B1" opacity="1.000000" stroke="none" 
	d="
M228.110992,156.862122 
	C227.552353,159.663589 226.656326,162.501831 225.872650,165.721039 
	C225.133926,165.667740 224.282852,165.233490 223.431763,164.799225 
	C224.879044,162.165802 226.326324,159.532349 228.110992,156.862122 
z"/>
<path fill="#0B0A0A" opacity="1.000000" stroke="none" 
	d="
M439.418365,165.837708 
	C438.671387,165.015366 438.292786,164.335480 438.093475,163.977600 
	C439.526947,162.857422 440.863312,161.564087 442.433563,160.691620 
	C443.213135,160.258484 444.422272,160.598450 445.672058,160.780396 
	C444.247101,163.106064 444.038177,167.013336 439.418365,165.837708 
z"/>
<path fill="#5B5B5A" opacity="1.000000" stroke="none" 
	d="
M186.788437,154.792755 
	C185.708694,158.340103 184.404984,161.748718 183.069885,165.522644 
	C182.674850,165.395889 181.889664,164.719803 182.011887,164.439804 
	C183.450714,161.143524 185.025513,157.906601 186.788437,154.792755 
z"/>
<path fill="#5B5B5A" opacity="1.000000" stroke="none" 
	d="
M143.780029,154.811066 
	C142.653687,158.379562 141.301682,161.797211 139.976913,165.602631 
	C139.524139,165.695374 138.598724,165.198639 138.627914,165.134186 
	C140.219376,161.619904 141.890961,158.141907 143.780029,154.811066 
z"/>
<path fill="#65C1EB" opacity="1.000000" stroke="none" 
	d="
M520.302734,133.802765 
	C519.182495,137.010559 517.766724,140.373047 515.996826,143.869568 
	C517.097595,140.654877 518.552490,137.306168 520.302734,133.802765 
z"/>
<path fill="#575656" opacity="1.000000" stroke="none" 
	d="
M99.693390,164.020111 
	C97.639565,165.546631 96.761879,164.590698 97.391739,162.324341 
	C98.041924,159.984879 99.108994,157.761261 99.987350,155.092621 
	C100.127335,156.129150 100.466316,157.573288 100.368980,158.987411 
	C100.258675,160.589706 99.757317,162.165070 99.693390,164.020111 
z"/>
<path fill="#636262" opacity="1.000000" stroke="none" 
	d="
M474.295898,165.895660 
	C475.851715,162.651215 477.745483,159.386597 480.013062,156.242874 
	C478.469208,159.534332 476.551514,162.704910 474.295898,165.895660 
z"/>
<path fill="#65C1EB" opacity="1.000000" stroke="none" 
	d="
M505.361298,144.969513 
	C506.550690,141.974503 508.080383,138.921555 509.929413,135.786453 
	C508.733032,138.773376 507.217285,141.842468 505.361298,144.969513 
z"/>
<path fill="#65C1EB" opacity="1.000000" stroke="none" 
	d="
M521.141235,115.441490 
	C520.422241,115.831146 519.630554,115.873688 517.755737,115.974411 
	C519.635010,112.964844 521.096680,110.623940 522.894348,108.137604 
	C522.509644,110.359581 521.789001,112.726974 521.141235,115.441490 
z"/>
<path fill="#636262" opacity="1.000000" stroke="none" 
	d="
M471.463501,158.317444 
	C471.194366,160.546204 470.582367,162.887360 469.984436,165.602509 
	C469.282928,165.634705 468.567352,165.292908 467.851807,164.951111 
	C468.941406,162.777359 470.031006,160.603607 471.463501,158.317444 
z"/>
<path fill="#595857" opacity="1.000000" stroke="none" 
	d="
M270.877686,154.472717 
	C270.082977,156.096329 268.974579,157.597412 267.523773,159.093903 
	C268.308899,157.509598 269.436432,155.929901 270.877686,154.472717 
z"/>
<path fill="#5B5B5A" opacity="1.000000" stroke="none" 
	d="
M219.256424,159.753601 
	C219.274643,158.462799 219.609955,157.059448 219.968918,155.283478 
	C222.518631,156.423264 222.420212,157.534302 219.256424,159.753601 
z"/>
<path fill="#4D4D4C" opacity="1.000000" stroke="none" 
	d="
M364.809326,162.225952 
	C364.925079,162.941422 364.878204,163.924042 364.873322,165.161469 
	C364.111755,165.389435 363.308228,165.362625 362.504669,165.335815 
	C363.218689,164.388245 363.932709,163.440674 364.809326,162.225952 
z"/>
<path fill="#5B5B5A" opacity="1.000000" stroke="none" 
	d="
M144.294525,165.931183 
	C145.091599,164.573044 146.222504,163.246414 147.703735,161.977707 
	C146.912155,163.344650 145.770279,164.653671 144.294525,165.931183 
z"/>
<path fill="#0B0A0A" opacity="1.000000" stroke="none" 
	d="
M448.619141,155.968933 
	C446.892548,156.598282 445.518494,156.961075 444.002380,157.057129 
	C444.949219,153.539078 446.990204,154.760574 448.619141,155.968933 
z"/>
<path fill="#5B5B5A" opacity="1.000000" stroke="none" 
	d="
M176.188385,159.665588 
	C176.251251,158.322159 176.619095,156.998642 176.999634,155.323929 
	C176.839355,156.543655 176.666367,158.114563 176.188385,159.665588 
z"/>
<path fill="#5B5B5A" opacity="1.000000" stroke="none" 
	d="
M188.217407,165.639786 
	C188.651871,164.427643 189.401520,163.190002 190.485626,161.932114 
	C190.057556,163.145996 189.295074,164.380142 188.217407,165.639786 
z"/>
<path fill="#636262" opacity="1.000000" stroke="none" 
	d="
M458.958923,154.516327 
	C459.199249,155.011932 459.180481,155.342636 459.083557,155.911621 
	C458.256134,156.012527 457.506927,155.875168 456.757690,155.737823 
	C457.405060,155.275696 458.052429,154.813568 458.958923,154.516327 
z"/>
<path fill="#595857" opacity="1.000000" stroke="none" 
	d="
M366.582031,156.992340 
	C366.462555,158.094284 366.127594,159.414413 365.454529,160.858887 
	C365.533112,159.725662 365.949829,158.468094 366.582031,156.992340 
z"/>
<path fill="#636262" opacity="1.000000" stroke="none" 
	d="
M492.211975,156.209167 
	C491.914001,155.722137 491.831024,155.387604 491.775024,154.795441 
	C492.638031,154.673889 493.474060,154.810013 494.310089,154.946136 
	C493.682404,155.417984 493.054688,155.889832 492.211975,156.209167 
z"/>
<path fill="#4D4D4C" opacity="1.000000" stroke="none" 
	d="
M391.289185,166.032867 
	C390.905640,165.574661 390.839264,165.212799 390.829315,164.580475 
	C391.891327,164.309982 392.896912,164.309982 393.902496,164.309982 
	C393.948334,164.638748 393.994171,164.967529 394.040009,165.296295 
	C393.228760,165.573944 392.417542,165.851593 391.289185,166.032867 
z"/>
<path fill="#5B5B5A" opacity="1.000000" stroke="none" 
	d="
M217.142639,161.055115 
	C217.440826,160.557114 217.860291,160.225082 218.575775,159.908234 
	C218.335846,160.355957 217.799881,160.788513 217.142639,161.055115 
z"/>
<path fill="#4C4B4B" opacity="1.000000" stroke="none" 
	d="
M294.290405,166.021667 
	C293.922668,165.603790 293.863739,165.250259 293.839905,164.628326 
	C294.409149,164.476364 294.943237,164.592819 295.477356,164.709259 
	C295.184631,165.168167 294.891937,165.627090 294.290405,166.021667 
z"/>
<path fill="#302F2F" opacity="1.000000" stroke="none" 
	d="
M80.609589,160.837158 
	C80.178970,160.727249 79.627846,160.410751 78.987946,159.772903 
	C79.429146,159.844574 79.959114,160.237579 80.609589,160.837158 
z"/>
<path fill="#595857" opacity="1.000000" stroke="none" 
	d="
M293.750916,158.963440 
	C293.729553,159.125656 293.459137,159.220108 293.094604,159.166519 
	C293.167633,158.977539 293.334747,158.936615 293.750916,158.963440 
z"/>
<path fill="#F9F9F9" opacity="1.000000" stroke="none" 
	d="
M427.604828,115.445770 
	C427.647888,116.171494 427.251648,116.886078 426.405029,117.571594 
	C426.358276,116.839905 426.761902,116.137268 427.604828,115.445770 
z"/>
<path fill="#DCEFF7" opacity="1.000000" stroke="none" 
	d="
M266.807434,135.724609 
	C263.935089,140.577972 260.204712,141.077164 255.038818,138.715210 
	C257.322052,133.856766 259.222595,129.044403 261.826904,124.649017 
	C262.868958,122.890305 265.333954,121.293243 267.374725,120.949516 
	C271.633789,120.232170 272.507172,121.903763 270.742249,125.821976 
	C269.337311,128.941071 268.197784,132.179733 266.807434,135.724609 
z"/>
<path fill="#F9F9F9" opacity="1.000000" stroke="none" 
	d="
M346.900330,159.840302 
	C347.177643,159.707230 347.778900,159.841522 348.166077,160.251587 
	C347.709381,160.387466 347.466827,160.247559 346.900330,159.840302 
z"/>
<path fill="#0B0A0A" opacity="1.000000" stroke="none" 
	d="
M432.455719,161.276733 
	C433.269836,161.712219 433.781067,162.037354 434.292267,162.362503 
	C434.214478,162.569321 434.136719,162.776138 434.058960,162.982956 
	C432.618958,162.561737 431.178986,162.140518 429.739014,161.719299 
	C429.767670,161.534988 429.796356,161.350693 429.825043,161.166397 
	C430.600952,161.166397 431.376892,161.166397 432.455719,161.276733 
z"/>
<path fill="#C6C6C6" opacity="1.000000" stroke="none" 
	d="
M203.933044,156.129059 
	C207.639359,156.285767 210.869751,156.442459 214.100159,156.599152 
	C214.081604,157.313522 214.063049,158.027908 214.044495,158.742279 
	C206.393158,158.742279 198.741821,158.742279 191.206726,158.742279 
	C192.719589,156.128174 192.719589,156.128174 203.933044,156.129059 
z"/>
<path fill="#C9C9C9" opacity="1.000000" stroke="none" 
	d="
M153.455780,159.878357 
	C151.271515,159.769501 149.542435,159.557831 147.192215,159.270142 
	C148.181854,157.914276 148.804306,157.061493 149.711792,156.065109 
	C156.737411,156.126816 163.477966,156.332108 170.218536,156.537415 
	C170.220169,157.399582 170.221802,158.261749 170.223434,159.123917 
	C164.785950,159.341125 159.348465,159.558350 153.455780,159.878357 
z"/>
</svg>