<svg version="1.1" id="Layer_1" xmlns="http://www.w3.org/2000/svg" xmlns:xlink="http://www.w3.org/1999/xlink" x="0px" y="0px"
	 width="100%" viewBox="0 0 576 256" enable-background="new 0 0 576 256" xml:space="preserve">
<path fill="#000000" opacity="1.000000" stroke="none" 
	d="
M577.000000,87.000000 
	C577.000000,143.620560 577.000000,200.241104 577.000000,257.000000 
	C454.645813,257.000000 332.291565,257.000000 209.475922,256.632111 
	C213.052612,250.372345 217.007263,244.421188 221.143082,238.598740 
	C240.116074,211.888107 259.165436,185.231689 278.128693,158.514160 
	C283.406799,151.077728 283.314636,151.012314 293.041748,151.012314 
	C366.524292,151.012314 440.006866,151.039581 513.489319,150.968674 
	C520.566040,150.961838 527.767639,151.060669 534.689941,149.847672 
	C545.698242,147.918686 554.679504,142.245041 558.938660,131.376022 
	C564.627502,116.858925 569.776917,102.130661 575.233948,87.521446 
	C575.362976,87.175934 576.391174,87.166298 577.000000,87.000000 
z"/>
<path fill="#000000" opacity="1.000000" stroke="none" 
	d="
M207.000000,257.000000 
	C138.426727,257.000000 69.853447,257.000000 1.000000,257.000000 
	C1.000000,218.646225 1.000000,180.291779 1.289647,141.179306 
	C6.907317,148.622498 14.890585,151.053757 24.141216,151.033600 
	C51.453945,150.974045 78.766884,151.012314 106.079742,151.012314 
	C154.208176,151.012314 202.336594,151.012314 250.664719,151.012314 
	C250.072815,152.983017 249.704773,154.877548 248.953217,156.605270 
	C242.713974,170.948532 236.309113,185.220322 230.141983,199.594223 
	C224.017578,213.868622 218.046158,228.209824 212.145462,242.578339 
	C210.208679,247.294540 208.702881,252.187744 207.000000,257.000000 
z"/>
<path fill="#000000" opacity="1.000000" stroke="none" 
	d="
M1.000001,125.000000 
	C1.000000,83.702286 1.000000,42.404572 1.000000,1.000000 
	C128.687546,1.000000 256.375122,1.000000 384.826813,1.316954 
	C382.072052,3.424862 378.606018,5.330325 375.024170,6.984991 
	C364.859406,11.680699 354.642303,16.263077 344.454987,20.910145 
	C331.246704,26.935278 318.043701,32.972034 304.845062,39.018250 
	C292.510376,44.668678 280.202301,50.377621 267.847900,55.984467 
	C260.184906,59.462181 252.613174,62.222916 243.713577,62.175732 
	C178.111206,61.827923 112.505943,61.904785 46.902142,62.068199 
	C35.801456,62.095852 22.804720,69.427368 18.092190,81.733673 
	C12.849938,95.423302 8.035583,109.276520 2.956698,123.029625 
	C2.664989,123.819557 1.668494,124.349213 1.000001,125.000000 
z"/>
<path fill="#000000" opacity="1.000000" stroke="none" 
	d="
M390.000000,1.000002 
	C452.227875,1.000000 514.455750,1.000000 577.000000,1.000000 
	C577.000000,24.686623 577.000000,48.374653 576.692627,72.825348 
	C571.765198,64.538521 564.061829,61.879040 554.342407,61.902519 
	C487.347748,62.064384 420.352539,61.987667 353.357513,61.987667 
	C351.617004,61.987667 349.876495,61.987667 347.686096,61.987667 
	C348.358276,60.424156 348.585632,59.464218 349.117645,58.722916 
	C356.284851,48.736290 363.562286,38.828243 370.673584,28.802259 
	C377.202972,19.596703 383.564514,10.272133 390.000000,1.000002 
z"/>
<path fill="#F9F9F9" opacity="1.000000" stroke="none" 
	d="
M389.583344,1.000002 
	C383.564514,10.272133 377.202972,19.596703 370.673584,28.802259 
	C363.562286,38.828243 356.284851,48.736290 349.117645,58.722916 
	C348.585632,59.464218 348.358276,60.424156 347.686096,61.987667 
	C349.876495,61.987667 351.617004,61.987667 353.357513,61.987667 
	C420.352539,61.987667 487.347748,62.064384 554.342407,61.902519 
	C564.061829,61.879040 571.765198,64.538521 576.692627,73.294006 
	C577.000000,77.356903 577.000000,81.713799 577.000000,86.535355 
	C576.391174,87.166298 575.362976,87.175934 575.233948,87.521446 
	C569.776917,102.130661 564.627502,116.858925 558.938660,131.376022 
	C554.679504,142.245041 545.698242,147.918686 534.689941,149.847672 
	C527.767639,151.060669 520.566040,150.961838 513.489319,150.968674 
	C440.006866,151.039581 366.524292,151.012314 293.041748,151.012314 
	C283.314636,151.012314 283.406799,151.077728 278.128693,158.514160 
	C259.165436,185.231689 240.116074,211.888107 221.143082,238.598740 
	C217.007263,244.421188 213.052612,250.372345 209.007263,256.632111 
	C208.555557,257.000000 208.111099,257.000000 207.333328,257.000000 
	C208.702881,252.187744 210.208679,247.294540 212.145462,242.578339 
	C218.046158,228.209824 224.017578,213.868622 230.141983,199.594223 
	C236.309113,185.220322 242.713974,170.948532 248.953217,156.605270 
	C249.704773,154.877548 250.072815,152.983017 250.664719,151.012314 
	C202.336594,151.012314 154.208176,151.012314 106.079742,151.012314 
	C78.766884,151.012314 51.453945,150.974045 24.141216,151.033600 
	C14.890585,151.053757 6.907317,148.622498 1.289647,140.710648 
	C1.000000,135.977905 1.000000,130.955811 1.000001,125.466858 
	C1.668494,124.349213 2.664989,123.819557 2.956698,123.029625 
	C8.035583,109.276520 12.849938,95.423302 18.092190,81.733673 
	C22.804720,69.427368 35.801456,62.095852 46.902142,62.068199 
	C112.505943,61.904785 178.111206,61.827923 243.713577,62.175732 
	C252.613174,62.222916 260.184906,59.462181 267.847900,55.984467 
	C280.202301,50.377621 292.510376,44.668678 304.845062,39.018250 
	C318.043701,32.972034 331.246704,26.935278 344.454987,20.910145 
	C354.642303,16.263077 364.859406,11.680699 375.024170,6.984991 
	C378.606018,5.330325 382.072052,3.424862 385.295471,1.316954 
	C386.388885,1.000000 387.777802,1.000000 389.583344,1.000002 
M246.187897,182.026352 
	C246.094650,182.510162 246.001404,182.993958 245.437592,183.925568 
	C243.064255,189.210419 240.690918,194.495270 238.317581,199.780106 
	C240.197708,199.181320 241.240387,198.028488 242.139297,196.772766 
	C253.644577,180.700775 265.217407,164.675690 276.543549,148.478180 
	C278.762115,145.305389 280.970154,143.936249 284.987244,143.943893 
	C357.952728,144.082886 430.918549,144.047806 503.884277,144.041946 
	C512.546509,144.041245 521.245422,144.485321 529.861389,143.841461 
	C539.935425,143.088654 548.053162,138.425919 551.953064,128.577866 
	C557.808899,113.790642 563.408569,98.899773 568.938843,83.986824 
	C571.620178,76.756584 567.604004,70.189438 559.949524,68.989052 
	C557.500549,68.604996 554.965881,68.690514 552.470459,68.690033 
	C481.503784,68.676239 410.537140,68.678925 339.570465,68.678925 
	C337.842987,68.678925 336.115509,68.678925 333.534271,68.678925 
	C345.820526,51.396111 357.502930,34.962757 369.185303,18.529408 
	C368.915771,18.140991 368.646210,17.752575 368.376648,17.364159 
	C366.007111,18.594646 363.637604,19.825132 360.496948,21.016638 
	C343.184875,28.896244 325.891357,36.816948 308.555634,44.644123 
	C290.471985,52.808994 272.347687,60.883762 253.300735,68.750977 
	C185.188644,68.727798 117.076561,68.704529 48.964474,68.683350 
	C48.465237,68.683189 47.963364,68.683884 47.467133,68.730827 
	C36.775410,69.742310 28.923899,74.970512 25.014509,85.025414 
	C19.432526,99.382217 14.270808,113.903488 9.011413,128.384232 
	C6.034652,136.580170 10.633239,143.402740 19.417715,143.954956 
	C21.575308,144.090591 23.745813,144.041458 25.910395,144.042282 
	C104.514297,144.072037 183.118210,144.097626 261.637268,144.807968 
	C258.100128,153.109421 254.471725,161.373672 251.065582,169.728531 
	C249.440125,173.715530 248.236893,177.874664 246.911301,181.990845 
	C246.911301,181.990845 246.931305,181.916214 246.187897,182.026352 
z"/>
<path fill="#030303" opacity="1.000000" stroke="none" 
	d="
M361.268066,21.055622 
	C363.637604,19.825132 366.007111,18.594646 368.376648,17.364159 
	C368.646210,17.752575 368.915771,18.140991 369.185303,18.529408 
	C357.502930,34.962757 345.820526,51.396111 333.534271,68.678925 
	C336.115509,68.678925 337.842987,68.678925 339.570465,68.678925 
	C410.537140,68.678925 481.503784,68.676239 552.470459,68.690033 
	C554.965881,68.690514 557.500549,68.604996 559.949524,68.989052 
	C567.604004,70.189438 571.620178,76.756584 568.938843,83.986824 
	C563.408569,98.899773 557.808899,113.790642 551.953064,128.577866 
	C548.053162,138.425919 539.935425,143.088654 529.861389,143.841461 
	C521.245422,144.485321 512.546509,144.041245 503.884277,144.041946 
	C430.918549,144.047806 357.952728,144.082886 284.987244,143.943893 
	C280.970154,143.936249 278.762115,145.305389 276.543549,148.478180 
	C265.217407,164.675690 253.644577,180.700775 242.139297,196.772766 
	C241.240387,198.028488 240.197708,199.181320 238.317581,199.780106 
	C240.690918,194.495270 243.064255,189.210419 245.976562,183.539856 
	C246.654144,182.741486 246.792725,182.328857 246.931305,181.916214 
	C246.931305,181.916214 246.911301,181.990845 247.217377,181.900360 
	C261.083405,162.796082 274.643341,143.782288 286.855377,126.658554 
	C284.122772,123.983284 281.904785,121.811806 279.686768,119.640327 
	C280.153900,122.792511 277.365997,124.952164 272.282440,124.395950 
	C271.313599,124.289948 269.689606,126.081322 269.096191,127.340523 
	C266.492188,132.866165 264.155640,138.517853 261.722107,144.123810 
	C183.118210,144.097626 104.514297,144.072037 25.910395,144.042282 
	C23.745813,144.041458 21.575308,144.090591 19.417715,143.954956 
	C10.633239,143.402740 6.034652,136.580170 9.011413,128.384232 
	C14.270808,113.903488 19.432526,99.382217 25.014509,85.025414 
	C28.923899,74.970512 36.775410,69.742310 47.467133,68.730827 
	C47.963364,68.683884 48.465237,68.683189 48.964474,68.683350 
	C117.076561,68.704529 185.188644,68.727798 253.524841,69.144150 
	C248.031586,72.171783 242.314209,74.806252 236.596832,77.440720 
	C236.701904,77.792694 236.806976,78.144676 236.912048,78.496651 
	C255.556656,75.286278 274.201263,72.075905 293.690491,68.720093 
	C291.613190,73.646400 290.104767,77.674271 288.241089,81.530426 
	C285.857422,86.462402 283.619598,91.217659 289.674225,94.969322 
	C293.109100,87.938408 294.295746,87.255058 301.876862,88.204491 
	C304.936859,88.587715 306.493744,89.869156 305.100098,93.203384 
	C303.230042,97.677536 301.476013,102.200195 299.672180,106.702034 
	C301.036682,106.156860 302.006531,105.194695 302.786469,104.097519 
	C313.463928,89.077393 324.149994,74.063141 334.762177,58.996887 
	C343.646210,46.384113 352.436340,33.705235 361.268066,21.055622 
M368.244629,97.982407 
	C368.323853,92.433205 367.135101,90.982399 361.892639,90.895538 
	C353.398254,90.754791 344.899445,90.692879 336.406830,90.842720 
	C335.120819,90.865402 333.154022,91.910194 332.694855,92.989586 
	C328.656616,102.482277 324.888794,112.089981 320.991852,121.785706 
	C329.977509,122.528557 329.964630,122.523476 333.087280,114.601410 
	C335.386414,108.768684 337.724701,102.951424 340.002716,97.234695 
	C341.940399,97.234695 343.557709,97.234695 345.609589,97.234695 
	C342.369507,105.580009 339.251709,113.610435 336.165039,121.560608 
	C341.711487,123.467583 344.146851,121.328590 345.639435,116.509933 
	C347.347778,110.994690 349.899048,105.746124 351.892639,100.311478 
	C353.026123,97.221642 354.653229,96.058281 358.453827,98.182770 
	C355.519318,105.929588 352.572266,113.709511 349.484436,121.861084 
	C352.947510,121.861084 355.865265,121.861084 358.830048,121.861084 
	C361.924255,114.082863 364.981110,106.398582 368.244629,97.982407 
M126.579445,110.013023 
	C126.320183,110.622284 126.041306,111.224037 125.804619,111.841942 
	C122.779015,119.740623 124.329391,122.042152 132.773438,122.088158 
	C139.430206,122.124420 146.102493,121.822182 152.739105,122.189934 
	C157.397247,122.448059 159.205917,120.532066 159.338913,116.017227 
	C152.351761,116.017227 145.529068,116.158279 138.720627,115.909210 
	C137.189056,115.853188 134.471191,114.483925 134.437637,113.634750 
	C134.342407,111.223671 135.653580,109.565735 138.822037,109.720070 
	C144.965118,110.019287 151.147186,110.040482 157.282730,109.671753 
	C159.260544,109.552895 161.856567,108.330353 162.910599,106.764893 
	C164.720566,104.076759 165.757095,100.788513 166.724243,97.631470 
	C168.059265,93.273621 166.709045,91.094681 162.169846,90.926926 
	C154.868896,90.657104 147.543579,90.740707 140.239136,90.987831 
	C135.904434,91.134476 132.789825,93.378700 131.293076,97.687531 
	C129.935242,101.596390 128.363525,105.430946 126.579445,110.013023 
M396.339233,90.548615 
	C391.691895,90.684280 386.899048,90.175392 382.447937,91.180305 
	C379.438873,91.859650 375.837952,94.069473 374.390778,96.652931 
	C371.353180,102.075485 369.431122,108.148682 367.297852,114.044052 
	C365.547577,118.881142 367.563995,121.891579 372.774261,122.004120 
	C381.737335,122.197716 390.707611,122.057686 399.864105,122.057686 
	C400.657715,120.196861 401.413788,118.424126 402.646881,115.532852 
	C393.394257,115.532852 384.961975,115.532852 376.547760,115.532852 
	C376.811310,110.926514 378.498932,109.463051 382.345642,109.719383 
	C387.640625,110.072205 392.999023,109.506523 398.288574,109.897705 
	C402.970947,110.243980 405.107666,108.125961 406.783051,104.077637 
	C412.220459,90.939079 410.234344,90.697121 396.339233,90.548615 
M208.077545,105.566742 
	C205.999847,110.921585 203.922134,116.276428 201.811569,121.715973 
	C210.536011,122.647057 210.466690,122.617020 213.702179,115.148766 
	C214.410706,113.513359 215.627609,111.123917 216.920532,110.903847 
	C220.405045,110.310753 224.056931,110.701042 227.347595,110.701042 
	C228.377670,114.981003 229.216522,118.466461 230.029007,121.842377 
	C233.523071,121.842377 236.623352,121.842377 239.932526,121.842377 
	C238.962906,118.099480 238.066864,114.640625 237.140900,111.066246 
	C243.686188,108.431747 244.456314,102.243134 245.997223,96.828568 
	C246.841431,93.862114 244.943375,91.247284 241.451645,90.978210 
	C237.477585,90.671951 233.479446,90.585045 229.491409,90.576973 
	C224.513596,90.566887 218.397507,89.003387 214.879700,91.315742 
	C211.410858,93.595917 210.572769,99.877777 208.577591,104.402687 
	C208.510849,104.554062 208.412628,104.691559 208.077545,105.566742 
M510.031311,95.762718 
	C511.433624,96.157890 512.829712,96.866180 514.239319,96.894264 
	C520.490601,97.018829 526.745728,96.948227 533.111267,96.948227 
	C533.319275,101.592163 531.751099,103.348946 527.624634,103.036972 
	C523.816589,102.749077 519.969299,102.940994 516.139893,102.982124 
	C503.970917,103.112823 506.159546,101.287720 501.351776,113.150871 
	C498.950439,119.076210 500.814484,121.905807 507.229156,122.026794 
	C514.886169,122.171211 522.551636,121.941666 530.205078,122.162300 
	C532.901184,122.240036 534.002502,121.098312 534.849792,118.846893 
	C537.123901,112.804672 539.527466,106.810982 541.902588,100.807076 
	C544.337769,94.651093 542.679749,91.493164 536.059265,90.999474 
	C529.432190,90.505287 522.742859,90.884033 516.104675,90.483871 
	C512.559631,90.270164 510.817993,91.626183 510.031311,95.762718 
M281.685852,91.276665 
	C274.554321,91.040253 267.403961,91.043739 260.297791,90.484818 
	C255.391754,90.098953 253.405533,92.098885 253.259933,97.386826 
	C261.135712,97.386826 268.815979,97.386826 276.633362,97.386826 
	C276.422363,101.564072 275.057861,103.382523 271.123596,103.047005 
	C267.328369,102.723328 263.483673,102.953316 259.661041,102.981262 
	C247.032043,103.073578 249.295410,101.500481 244.688324,113.337761 
	C242.354095,119.335251 244.077271,121.917473 250.591797,122.033829 
	C258.069000,122.167374 265.556580,121.901627 273.026489,122.172462 
	C276.119476,122.284599 277.301025,121.024712 278.269836,118.375839 
	C280.536957,112.177483 283.013794,106.050598 285.585449,99.970787 
	C287.236267,96.068062 286.501099,93.301994 281.685852,91.276665 
M417.513489,122.089981 
	C422.834839,122.075584 428.161407,122.200157 433.475830,122.001114 
	C437.452026,121.852196 440.939789,120.564240 442.543762,116.371811 
	C444.788666,110.504181 447.181152,104.690849 449.315887,98.783958 
	C450.969330,94.208794 449.062775,91.114128 444.218231,90.949432 
	C435.913086,90.667091 427.593262,90.728798 419.281830,90.829369 
	C418.213074,90.842293 416.553070,91.700249 416.188721,92.586716 
	C412.249817,102.169670 408.515625,111.836769 404.486115,122.089981 
	C408.962433,122.089981 412.742249,122.089981 417.513489,122.089981 
M203.743454,103.195908 
	C198.924255,103.122261 194.105240,103.007660 189.285812,102.985741 
	C183.754440,102.960587 183.587662,103.164421 183.177536,109.673370 
	C186.256470,109.673370 189.303635,109.673370 192.511322,109.673370 
	C190.312958,116.215408 182.323395,118.266502 173.449600,114.594994 
	C175.612793,109.319458 177.624115,103.946632 180.091431,98.792068 
	C180.584305,97.762390 182.799591,97.124290 184.251587,97.065186 
	C189.236908,96.862244 194.267334,96.651283 199.220840,97.101135 
	C204.020813,97.537033 206.340729,95.807823 206.557373,91.023697 
	C197.442383,91.023697 188.320328,90.817024 179.215317,91.120735 
	C175.322098,91.250595 172.544250,93.690926 171.126953,97.542511 
	C169.302582,102.500328 167.273682,107.382469 165.377396,112.314331 
	C163.067017,118.323235 165.183365,121.686150 171.836777,121.983154 
	C177.817368,122.250130 183.824799,122.206032 189.809708,121.995392 
	C194.666336,121.824471 198.293900,119.581894 199.978455,114.711838 
	C201.220505,111.121048 202.627899,107.587440 203.743454,103.195908 
M78.180893,97.024185 
	C82.226288,96.914154 81.405609,99.291710 80.500664,101.636887 
	C77.928337,108.303047 75.321701,114.955971 72.647285,121.822815 
	C81.752266,122.382774 81.755028,122.383858 84.710793,114.869148 
	C86.831032,109.478691 89.003052,104.107529 91.038986,98.685333 
	C92.658920,94.371017 90.634193,90.817909 86.065132,90.659447 
	C78.086952,90.382751 70.091377,90.499336 62.106808,90.649094 
	C61.085007,90.668266 59.532974,91.646538 59.160610,92.560883 
	C55.245579,102.174309 51.520718,111.865173 47.714069,121.609489 
	C56.296173,122.795258 56.285931,122.791153 59.191059,115.546989 
	C60.362167,112.626747 61.617264,109.740150 62.785488,106.818779 
	C66.701523,97.026016 66.693123,97.022659 78.180893,97.024185 
M462.989441,117.388908 
	C463.515106,121.656189 466.794495,121.968399 469.993347,122.030190 
	C476.644318,122.158653 483.323303,121.742439 489.944427,122.208588 
	C494.727905,122.545349 496.413208,120.595741 496.671051,115.805573 
	C488.518646,115.805573 480.623871,115.805573 472.049133,115.805573 
	C473.900482,111.077950 475.687012,107.033836 477.064880,102.854973 
	C478.507629,98.479202 480.951416,96.342087 485.834930,96.867271 
	C489.781311,97.291664 493.840424,96.642868 497.793732,97.034027 
	C502.444885,97.494240 504.590149,95.679420 504.698059,90.976997 
	C496.043732,90.976997 487.370239,90.458809 478.819489,91.256592 
	C475.805878,91.537766 471.925110,94.429413 470.481018,97.194832 
	C467.295837,103.294456 465.408081,110.071564 462.989441,117.388908 
M296.568817,108.065117 
	C298.759216,102.438774 300.949615,96.812439 303.179230,91.085411 
	C294.642456,89.892433 294.668823,89.902718 291.938110,96.903786 
	C289.718262,102.595085 287.352936,108.230423 285.186798,113.941650 
	C283.331757,118.832672 285.117188,121.814117 290.428497,121.966873 
	C299.389832,122.224617 308.363983,122.037567 317.542511,122.037567 
	C318.198975,120.059502 318.796936,118.257675 319.688263,115.571869 
	C310.769073,115.571869 302.448059,115.571869 293.646667,115.571869 
	C294.728241,112.738686 295.485321,110.755486 296.568817,108.065117 
M103.629791,90.563965 
	C98.780846,89.816231 95.623596,91.331337 95.363007,97.011299 
	C98.841789,97.011299 102.312012,97.011299 106.416595,97.011299 
	C103.199379,105.548439 100.147186,113.647659 97.061554,121.835625 
	C105.626266,122.428764 105.625000,122.428268 108.443794,115.193039 
	C110.774834,109.209770 113.109306,103.227844 115.263214,97.704437 
	C120.229172,95.010773 128.575363,101.342087 130.114105,90.563942 
	C121.456322,90.563942 113.028870,90.563942 103.629791,90.563965 
M448.922424,122.095566 
	C453.889984,123.155762 456.571960,121.057816 457.612976,116.171402 
	C458.052185,114.109932 459.211670,112.207825 459.984955,110.210510 
	C462.449707,103.844566 464.886810,97.467941 467.645142,90.286949 
	C463.684143,91.510941 459.635468,88.224815 457.667053,92.999413 
	C453.960785,101.989540 450.361084,111.024200 446.837219,120.087059 
	C446.666412,120.526329 447.646423,121.413078 448.922424,122.095566 
M47.948101,102.476295 
	C49.415981,98.709839 50.883858,94.943382 52.351738,91.176926 
	C52.008865,90.662903 51.665993,90.148880 51.323116,89.634850 
	C48.462406,90.721405 43.983185,91.026871 43.017464,93.027939 
	C38.520714,102.345688 34.995632,112.132370 31.085600,121.844086 
	C40.091003,122.488358 40.071564,122.480774 43.096592,114.728485 
	C44.599670,110.876526 46.189255,107.058311 47.948101,102.476295 
z"/>
<path fill="#EB1E25" opacity="1.000000" stroke="none" 
	d="
M360.882507,21.036133 
	C352.436340,33.705235 343.646210,46.384113 334.762177,58.996887 
	C324.149994,74.063141 313.463928,89.077393 302.786469,104.097519 
	C302.006531,105.194695 301.036682,106.156860 299.672180,106.702034 
	C301.476013,102.200195 303.230042,97.677536 305.100098,93.203384 
	C306.493744,89.869156 304.936859,88.587715 301.876862,88.204491 
	C294.295746,87.255058 293.109100,87.938408 289.674225,94.969322 
	C283.619598,91.217659 285.857422,86.462402 288.241089,81.530426 
	C290.104767,77.674271 291.613190,73.646400 293.690491,68.720093 
	C274.201263,72.075905 255.556656,75.286278 236.912048,78.496651 
	C236.806976,78.144676 236.701904,77.792694 236.596832,77.440720 
	C242.314209,74.806252 248.031586,72.171783 253.995056,69.267616 
	C272.347687,60.883762 290.471985,52.808994 308.555634,44.644123 
	C325.891357,36.816948 343.184875,28.896244 360.882507,21.036133 
z"/>
<path fill="#E61F26" opacity="1.000000" stroke="none" 
	d="
M261.679688,144.465897 
	C264.155640,138.517853 266.492188,132.866165 269.096191,127.340523 
	C269.689606,126.081322 271.313599,124.289948 272.282440,124.395950 
	C277.365997,124.952164 280.153900,122.792511 279.686768,119.640327 
	C281.904785,121.811806 284.122772,123.983284 286.855377,126.658554 
	C274.643341,143.782288 261.083405,162.796082 247.182938,181.882843 
	C248.236893,177.874664 249.440125,173.715530 251.065582,169.728531 
	C254.471725,161.373672 258.100128,153.109421 261.679688,144.465897 
z"/>
<path fill="#E61F26" opacity="1.000000" stroke="none" 
	d="
M246.559601,181.971283 
	C246.792725,182.328857 246.654144,182.741486 246.211853,183.315948 
	C246.001404,182.993958 246.094650,182.510162 246.559601,181.971283 
z"/>
<path fill="#F9F9F9" opacity="1.000000" stroke="none" 
	d="
M368.141296,98.348358 
	C364.981110,106.398582 361.924255,114.082863 358.830048,121.861084 
	C355.865265,121.861084 352.947510,121.861084 349.484436,121.861084 
	C352.572266,113.709511 355.519318,105.929588 358.453827,98.182770 
	C354.653229,96.058281 353.026123,97.221642 351.892639,100.311478 
	C349.899048,105.746124 347.347778,110.994690 345.639435,116.509933 
	C344.146851,121.328590 341.711487,123.467583 336.165039,121.560608 
	C339.251709,113.610435 342.369507,105.580009 345.609589,97.234695 
	C343.557709,97.234695 341.940399,97.234695 340.002716,97.234695 
	C337.724701,102.951424 335.386414,108.768684 333.087280,114.601410 
	C329.964630,122.523476 329.977509,122.528557 320.991852,121.785706 
	C324.888794,112.089981 328.656616,102.482277 332.694855,92.989586 
	C333.154022,91.910194 335.120819,90.865402 336.406830,90.842720 
	C344.899445,90.692879 353.398254,90.754791 361.892639,90.895538 
	C367.135101,90.982399 368.323853,92.433205 368.141296,98.348358 
z"/>
<path fill="#F7F7F8" opacity="1.000000" stroke="none" 
	d="
M126.732780,109.655647 
	C128.363525,105.430946 129.935242,101.596390 131.293076,97.687531 
	C132.789825,93.378700 135.904434,91.134476 140.239136,90.987831 
	C147.543579,90.740707 154.868896,90.657104 162.169846,90.926926 
	C166.709045,91.094681 168.059265,93.273621 166.724243,97.631470 
	C165.757095,100.788513 164.720566,104.076759 162.910599,106.764893 
	C161.856567,108.330353 159.260544,109.552895 157.282730,109.671753 
	C151.147186,110.040482 144.965118,110.019287 138.822037,109.720070 
	C135.653580,109.565735 134.342407,111.223671 134.437637,113.634750 
	C134.471191,114.483925 137.189056,115.853188 138.720627,115.909210 
	C145.529068,116.158279 152.351761,116.017227 159.338913,116.017227 
	C159.205917,120.532066 157.397247,122.448059 152.739105,122.189934 
	C146.102493,121.822182 139.430206,122.124420 132.773438,122.088158 
	C124.329391,122.042152 122.779015,119.740623 125.804619,111.841942 
	C126.041306,111.224037 126.320183,110.622284 126.732780,109.655647 
M153.198639,103.179405 
	C157.509109,103.283455 156.967270,100.251823 157.158279,97.550911 
	C143.477051,95.391678 140.315826,96.320137 138.953064,103.179985 
	C143.440887,103.179985 147.848312,103.179985 153.198639,103.179405 
z"/>
<path fill="#F7F7F7" opacity="1.000000" stroke="none" 
	d="
M396.804291,90.548630 
	C410.234344,90.697121 412.220459,90.939079 406.783051,104.077637 
	C405.107666,108.125961 402.970947,110.243980 398.288574,109.897705 
	C392.999023,109.506523 387.640625,110.072205 382.345642,109.719383 
	C378.498932,109.463051 376.811310,110.926514 376.547760,115.532852 
	C384.961975,115.532852 393.394257,115.532852 402.646881,115.532852 
	C401.413788,118.424126 400.657715,120.196861 399.864105,122.057686 
	C390.707611,122.057686 381.737335,122.197716 372.774261,122.004120 
	C367.563995,121.891579 365.547577,118.881142 367.297852,114.044052 
	C369.431122,108.148682 371.353180,102.075485 374.390778,96.652931 
	C375.837952,94.069473 379.438873,91.859650 382.447937,91.180305 
	C386.899048,90.175392 391.691895,90.684280 396.804291,90.548630 
M398.762817,97.185066 
	C395.294617,97.126198 391.800537,97.311668 388.364563,96.948273 
	C383.791382,96.464615 381.697235,98.534515 381.139923,103.177246 
	C385.673126,103.177246 390.118835,102.989922 394.541138,103.231110 
	C398.773254,103.461922 399.905945,101.374352 398.762817,97.185066 
z"/>
<path fill="#F8F8F9" opacity="1.000000" stroke="none" 
	d="
M208.203308,105.201134 
	C208.412628,104.691559 208.510849,104.554062 208.577591,104.402687 
	C210.572769,99.877777 211.410858,93.595917 214.879700,91.315742 
	C218.397507,89.003387 224.513596,90.566887 229.491409,90.576973 
	C233.479446,90.585045 237.477585,90.671951 241.451645,90.978210 
	C244.943375,91.247284 246.841431,93.862114 245.997223,96.828568 
	C244.456314,102.243134 243.686188,108.431747 237.140900,111.066246 
	C238.066864,114.640625 238.962906,118.099480 239.932526,121.842377 
	C236.623352,121.842377 233.523071,121.842377 230.029007,121.842377 
	C229.216522,118.466461 228.377670,114.981003 227.347595,110.701042 
	C224.056931,110.701042 220.405045,110.310753 216.920532,110.903847 
	C215.627609,111.123917 214.410706,113.513359 213.702179,115.148766 
	C210.466690,122.617020 210.536011,122.647057 201.811569,121.715973 
	C203.922134,116.276428 205.999847,110.921585 208.203308,105.201134 
M233.318878,96.954636 
	C231.169846,96.953789 228.967072,97.259041 226.882111,96.893143 
	C221.238724,95.902771 218.806290,98.562477 218.315659,104.041229 
	C222.941788,104.041229 227.588745,104.383324 232.131882,103.846603 
	C233.623459,103.670395 235.017700,101.327194 236.061752,99.718750 
	C236.300980,99.350174 234.910873,97.923981 233.318878,96.954636 
z"/>
<path fill="#FBFBFB" opacity="1.000000" stroke="none" 
	d="
M510.099091,95.325241 
	C510.817993,91.626183 512.559631,90.270164 516.104675,90.483871 
	C522.742859,90.884033 529.432190,90.505287 536.059265,90.999474 
	C542.679749,91.493164 544.337769,94.651093 541.902588,100.807076 
	C539.527466,106.810982 537.123901,112.804672 534.849792,118.846893 
	C534.002502,121.098312 532.901184,122.240036 530.205078,122.162300 
	C522.551636,121.941666 514.886169,122.171211 507.229156,122.026794 
	C500.814484,121.905807 498.950439,119.076210 501.351776,113.150871 
	C506.159546,101.287720 503.970917,103.112823 516.139893,102.982124 
	C519.969299,102.940994 523.816589,102.749077 527.624634,103.036972 
	C531.751099,103.348946 533.319275,101.592163 533.111267,96.948227 
	C526.745728,96.948227 520.490601,97.018829 514.239319,96.894264 
	C512.829712,96.866180 511.433624,96.157890 510.099091,95.325241 
M513.945007,115.971878 
	C518.231384,115.971878 522.517700,115.971878 526.724365,115.971878 
	C527.631409,113.659752 528.389587,111.727219 529.329163,109.332146 
	C523.740479,109.332146 518.895203,109.060341 514.116028,109.502838 
	C512.736877,109.630539 511.388672,111.706863 510.426239,113.155548 
	C510.262726,113.401680 512.129578,114.996689 513.945007,115.971878 
z"/>
<path fill="#FBFBFC" opacity="1.000000" stroke="none" 
	d="
M282.080017,91.458725 
	C286.501099,93.301994 287.236267,96.068062 285.585449,99.970787 
	C283.013794,106.050598 280.536957,112.177483 278.269836,118.375839 
	C277.301025,121.024712 276.119476,122.284599 273.026489,122.172462 
	C265.556580,121.901627 258.069000,122.167374 250.591797,122.033829 
	C244.077271,121.917473 242.354095,119.335251 244.688324,113.337761 
	C249.295410,101.500481 247.032043,103.073578 259.661041,102.981262 
	C263.483673,102.953316 267.328369,102.723328 271.123596,103.047005 
	C275.057861,103.382523 276.422363,101.564072 276.633362,97.386826 
	C268.815979,97.386826 261.135712,97.386826 253.259933,97.386826 
	C253.405533,92.098885 255.391754,90.098953 260.297791,90.484818 
	C267.403961,91.043739 274.554321,91.040253 282.080017,91.458725 
M268.146149,109.329453 
	C265.328461,109.329506 262.483215,109.579414 259.699341,109.272667 
	C255.211487,108.778175 253.474991,110.738594 253.607605,115.972336 
	C257.481628,115.972336 261.247437,115.600105 264.907654,116.062790 
	C269.936493,116.698463 271.532288,114.168869 272.162079,109.582977 
	C270.924438,109.482346 269.986267,109.406059 268.146149,109.329453 
z"/>
<path fill="#FAFAFA" opacity="1.000000" stroke="none" 
	d="
M417.017761,122.089981 
	C412.742249,122.089981 408.962433,122.089981 404.486115,122.089981 
	C408.515625,111.836769 412.249817,102.169670 416.188721,92.586716 
	C416.553070,91.700249 418.213074,90.842293 419.281830,90.829369 
	C427.593262,90.728798 435.913086,90.667091 444.218231,90.949432 
	C449.062775,91.114128 450.969330,94.208794 449.315887,98.783958 
	C447.181152,104.690849 444.788666,110.504181 442.543762,116.371811 
	C440.939789,120.564240 437.452026,121.852196 433.475830,122.001114 
	C428.161407,122.200157 422.834839,122.075584 417.017761,122.089981 
M423.378326,98.554863 
	C421.115601,104.245621 418.852875,109.936378 416.421173,116.052071 
	C421.493042,116.052071 425.644592,116.209404 429.772675,115.967064 
	C431.225372,115.881783 433.438507,115.182457 433.904541,114.138542 
	C436.291748,108.791405 438.222168,103.240349 440.743195,96.630669 
	C434.377686,97.073326 429.074371,97.442116 423.378326,98.554863 
z"/>
<path fill="#FAFBFB" opacity="1.000000" stroke="none" 
	d="
M203.852539,103.612129 
	C202.627899,107.587440 201.220505,111.121048 199.978455,114.711838 
	C198.293900,119.581894 194.666336,121.824471 189.809708,121.995392 
	C183.824799,122.206032 177.817368,122.250130 171.836777,121.983154 
	C165.183365,121.686150 163.067017,118.323235 165.377396,112.314331 
	C167.273682,107.382469 169.302582,102.500328 171.126953,97.542511 
	C172.544250,93.690926 175.322098,91.250595 179.215317,91.120735 
	C188.320328,90.817024 197.442383,91.023697 206.557373,91.023697 
	C206.340729,95.807823 204.020813,97.537033 199.220840,97.101135 
	C194.267334,96.651283 189.236908,96.862244 184.251587,97.065186 
	C182.799591,97.124290 180.584305,97.762390 180.091431,98.792068 
	C177.624115,103.946632 175.612793,109.319458 173.449600,114.594994 
	C182.323395,118.266502 190.312958,116.215408 192.511322,109.673370 
	C189.303635,109.673370 186.256470,109.673370 183.177536,109.673370 
	C183.587662,103.164421 183.754440,102.960587 189.285812,102.985741 
	C194.105240,103.007660 198.924255,103.122261 203.852539,103.612129 
z"/>
<path fill="#F9F9FA" opacity="1.000000" stroke="none" 
	d="
M77.718445,97.023575 
	C66.693123,97.022659 66.701523,97.026016 62.785488,106.818779 
	C61.617264,109.740150 60.362167,112.626747 59.191059,115.546989 
	C56.285931,122.791153 56.296173,122.795258 47.714069,121.609489 
	C51.520718,111.865173 55.245579,102.174309 59.160610,92.560883 
	C59.532974,91.646538 61.085007,90.668266 62.106808,90.649094 
	C70.091377,90.499336 78.086952,90.382751 86.065132,90.659447 
	C90.634193,90.817909 92.658920,94.371017 91.038986,98.685333 
	C89.003052,104.107529 86.831032,109.478691 84.710793,114.869148 
	C81.755028,122.383858 81.752266,122.382774 72.647285,121.822815 
	C75.321701,114.955971 77.928337,108.303047 80.500664,101.636887 
	C81.405609,99.291710 82.226288,96.914154 77.718445,97.023575 
z"/>
<path fill="#F9F9F9" opacity="1.000000" stroke="none" 
	d="
M462.990173,116.980568 
	C465.408081,110.071564 467.295837,103.294456 470.481018,97.194832 
	C471.925110,94.429413 475.805878,91.537766 478.819489,91.256592 
	C487.370239,90.458809 496.043732,90.976997 504.698059,90.976997 
	C504.590149,95.679420 502.444885,97.494240 497.793732,97.034027 
	C493.840424,96.642868 489.781311,97.291664 485.834930,96.867271 
	C480.951416,96.342087 478.507629,98.479202 477.064880,102.854973 
	C475.687012,107.033836 473.900482,111.077950 472.049133,115.805573 
	C480.623871,115.805573 488.518646,115.805573 496.671051,115.805573 
	C496.413208,120.595741 494.727905,122.545349 489.944427,122.208588 
	C483.323303,121.742439 476.644318,122.158653 469.993347,122.030190 
	C466.794495,121.968399 463.515106,121.656189 462.990173,116.980568 
z"/>
<path fill="#FAFAFA" opacity="1.000000" stroke="none" 
	d="
M296.405640,108.418701 
	C295.485321,110.755486 294.728241,112.738686 293.646667,115.571869 
	C302.448059,115.571869 310.769073,115.571869 319.688263,115.571869 
	C318.796936,118.257675 318.198975,120.059502 317.542511,122.037567 
	C308.363983,122.037567 299.389832,122.224617 290.428497,121.966873 
	C285.117188,121.814117 283.331757,118.832672 285.186798,113.941650 
	C287.352936,108.230423 289.718262,102.595085 291.938110,96.903786 
	C294.668823,89.902718 294.642456,89.892433 303.179230,91.085411 
	C300.949615,96.812439 298.759216,102.438774 296.405640,108.418701 
z"/>
<path fill="#FBFBFB" opacity="1.000000" stroke="none" 
	d="
M104.115608,90.563950 
	C113.028870,90.563942 121.456322,90.563942 130.114105,90.563942 
	C128.575363,101.342087 120.229172,95.010773 115.263214,97.704437 
	C113.109306,103.227844 110.774834,109.209770 108.443794,115.193039 
	C105.625000,122.428268 105.626266,122.428764 97.061554,121.835625 
	C100.147186,113.647659 103.199379,105.548439 106.416595,97.011299 
	C102.312012,97.011299 98.841789,97.011299 95.363007,97.011299 
	C95.623596,91.331337 98.780846,89.816231 104.115608,90.563950 
z"/>
<path fill="#F8F8F8" opacity="1.000000" stroke="none" 
	d="
M448.506470,122.093506 
	C447.646423,121.413078 446.666412,120.526329 446.837219,120.087059 
	C450.361084,111.024200 453.960785,101.989540 457.667053,92.999413 
	C459.635468,88.224815 463.684143,91.510941 467.645142,90.286949 
	C464.886810,97.467941 462.449707,103.844566 459.984955,110.210510 
	C459.211670,112.207825 458.052185,114.109932 457.612976,116.171402 
	C456.571960,121.057816 453.889984,123.155762 448.506470,122.093506 
z"/>
<path fill="#F7F7F7" opacity="1.000000" stroke="none" 
	d="
M47.843903,102.850571 
	C46.189255,107.058311 44.599670,110.876526 43.096592,114.728485 
	C40.071564,122.480774 40.091003,122.488358 31.085600,121.844086 
	C34.995632,112.132370 38.520714,102.345688 43.017464,93.027939 
	C43.983185,91.026871 48.462406,90.721405 51.323116,89.634850 
	C51.665993,90.148880 52.008865,90.662903 52.351738,91.176926 
	C50.883858,94.943382 49.415981,98.709839 47.843903,102.850571 
z"/>
<path fill="#040404" opacity="1.000000" stroke="none" 
	d="
M152.727188,103.179695 
	C147.848312,103.179985 143.440887,103.179985 138.953064,103.179985 
	C140.315826,96.320137 143.477051,95.391678 157.158279,97.550911 
	C156.967270,100.251823 157.509109,103.283455 152.727188,103.179695 
z"/>
<path fill="#030303" opacity="1.000000" stroke="none" 
	d="
M399.122528,97.433868 
	C399.905945,101.374352 398.773254,103.461922 394.541138,103.231110 
	C390.118835,102.989922 385.673126,103.177246 381.139923,103.177246 
	C381.697235,98.534515 383.791382,96.464615 388.364563,96.948273 
	C391.800537,97.311668 395.294617,97.126198 399.122528,97.433868 
z"/>
<path fill="#040404" opacity="1.000000" stroke="none" 
	d="
M233.794754,96.969589 
	C234.910873,97.923981 236.300980,99.350174 236.061752,99.718750 
	C235.017700,101.327194 233.623459,103.670395 232.131882,103.846603 
	C227.588745,104.383324 222.941788,104.041229 218.315659,104.041229 
	C218.806290,98.562477 221.238724,95.902771 226.882111,96.893143 
	C228.967072,97.259041 231.169846,96.953789 233.794754,96.969589 
z"/>
<path fill="#181818" opacity="1.000000" stroke="none" 
	d="
M513.501709,115.970200 
	C512.129578,114.996689 510.262726,113.401680 510.426239,113.155548 
	C511.388672,111.706863 512.736877,109.630539 514.116028,109.502838 
	C518.895203,109.060341 523.740479,109.332146 529.329163,109.332146 
	C528.389587,111.727219 527.631409,113.659752 526.724365,115.971878 
	C522.517700,115.971878 518.231384,115.971878 513.501709,115.970200 
z"/>
<path fill="#171717" opacity="1.000000" stroke="none" 
	d="
M268.597137,109.329620 
	C269.986267,109.406059 270.924438,109.482346 272.162079,109.582977 
	C271.532288,114.168869 269.936493,116.698463 264.907654,116.062790 
	C261.247437,115.600105 257.481628,115.972336 253.607605,115.972336 
	C253.474991,110.738594 255.211487,108.778175 259.699341,109.272667 
	C262.483215,109.579414 265.328461,109.329506 268.597137,109.329620 
z"/>
<path fill="#040404" opacity="1.000000" stroke="none" 
	d="
M423.574707,98.182884 
	C429.074371,97.442116 434.377686,97.073326 440.743195,96.630669 
	C438.222168,103.240349 436.291748,108.791405 433.904541,114.138542 
	C433.438507,115.182457 431.225372,115.881783 429.772675,115.967064 
	C425.644592,116.209404 421.493042,116.052071 416.421173,116.052071 
	C418.852875,109.936378 421.115601,104.245621 423.574707,98.182884 
z"/>
</svg>